<mxfile modified="2020-04-17T01:00:22.861Z" host="app.diagrams.net" agent="5.0 (Windows NT 10.0; Win64; x64) AppleWebKit/537.36 (KHTML, like Gecko) Chrome/80.0.3987.163 Safari/537.36" etag="3Fe0wP04C1WRvqhbJTFg" version="12.9.10" type="github" pages="2">
  <diagram id="T34uIwSaDnBM8WevRqWh" name="class">
    <mxGraphModel dx="2557" dy="2096" grid="1" gridSize="10" guides="1" tooltips="1" connect="1" arrows="1" fold="1" page="1" pageScale="1" pageWidth="827" pageHeight="1169" background="none" math="0" shadow="0">
      <root>
        <mxCell id="0" />
        <mxCell id="1" parent="0" />
        <mxCell id="V0LmtOdD6tVDb5vqFVER-127" value="" style="endArrow=none;html=1;exitX=1;exitY=0.5;exitDx=0;exitDy=0;" parent="1" source="V0LmtOdD6tVDb5vqFVER-214" target="V0LmtOdD6tVDb5vqFVER-20" edge="1">
          <mxGeometry width="50" height="50" relative="1" as="geometry">
            <mxPoint x="345" y="-159.89887640449433" as="sourcePoint" />
            <mxPoint x="175" y="169" as="targetPoint" />
          </mxGeometry>
        </mxCell>
        <mxCell id="V0LmtOdD6tVDb5vqFVER-162" value="" style="endArrow=none;html=1;" parent="1" source="V0LmtOdD6tVDb5vqFVER-226" target="V0LmtOdD6tVDb5vqFVER-145" edge="1">
          <mxGeometry width="50" height="50" relative="1" as="geometry">
            <mxPoint y="176.5" as="sourcePoint" />
            <mxPoint x="50" y="126.5" as="targetPoint" />
          </mxGeometry>
        </mxCell>
        <mxCell id="V0LmtOdD6tVDb5vqFVER-163" value="" style="endArrow=none;html=1;entryX=0.541;entryY=1.005;entryDx=0;entryDy=0;entryPerimeter=0;" parent="1" source="V0LmtOdD6tVDb5vqFVER-200" target="V0LmtOdD6tVDb5vqFVER-8" edge="1">
          <mxGeometry width="50" height="50" relative="1" as="geometry">
            <mxPoint x="180" y="96.5" as="sourcePoint" />
            <mxPoint x="73" y="-106" as="targetPoint" />
          </mxGeometry>
        </mxCell>
        <mxCell id="V0LmtOdD6tVDb5vqFVER-164" value="{Chirurgia ogÃ³lna,&lt;br&gt;Intensywna terapia,&lt;br&gt;Kardiologia,&lt;br&gt;Neurochirurgia,&lt;br&gt;Pediatria}" style="shape=note;whiteSpace=wrap;html=1;size=18;verticalAlign=top;align=left;spacingTop=-6;" parent="1" vertex="1">
          <mxGeometry x="664" y="312.5" width="127" height="82" as="geometry" />
        </mxCell>
        <mxCell id="V0LmtOdD6tVDb5vqFVER-167" value="" style="endArrow=none;html=1;" parent="1" source="V0LmtOdD6tVDb5vqFVER-139" target="V0LmtOdD6tVDb5vqFVER-164" edge="1">
          <mxGeometry width="50" height="50" relative="1" as="geometry">
            <mxPoint x="644" y="351.20183486238534" as="sourcePoint" />
            <mxPoint x="954" y="-159" as="targetPoint" />
          </mxGeometry>
        </mxCell>
        <mxCell id="V0LmtOdD6tVDb5vqFVER-170" value="" style="endArrow=none;html=1;" parent="1" source="V0LmtOdD6tVDb5vqFVER-221" target="V0LmtOdD6tVDb5vqFVER-1" edge="1">
          <mxGeometry width="50" height="50" relative="1" as="geometry">
            <mxPoint x="140" y="186.5" as="sourcePoint" />
            <mxPoint x="190" y="136.5" as="targetPoint" />
          </mxGeometry>
        </mxCell>
        <mxCell id="V0LmtOdD6tVDb5vqFVER-183" value="" style="endArrow=block;endSize=16;endFill=0;html=1;" parent="1" source="V0LmtOdD6tVDb5vqFVER-110" target="V0LmtOdD6tVDb5vqFVER-97" edge="1">
          <mxGeometry x="-0.375" y="80" width="160" relative="1" as="geometry">
            <mxPoint x="-607.8400000000003" y="305.5" as="sourcePoint" />
            <mxPoint x="-754.84" y="367.5044843049325" as="targetPoint" />
            <mxPoint as="offset" />
          </mxGeometry>
        </mxCell>
        <mxCell id="V0LmtOdD6tVDb5vqFVER-184" value="" style="endArrow=block;endSize=16;endFill=0;html=1;" parent="1" source="V0LmtOdD6tVDb5vqFVER-78" target="V0LmtOdD6tVDb5vqFVER-97" edge="1">
          <mxGeometry x="-0.375" y="80" width="160" relative="1" as="geometry">
            <mxPoint x="-388.5000000000002" y="-65.5" as="sourcePoint" />
            <mxPoint x="-548.5" y="-65.5" as="targetPoint" />
            <mxPoint as="offset" />
            <Array as="points">
              <mxPoint x="-378" y="277" />
              <mxPoint x="-603.5" y="276.5" />
            </Array>
          </mxGeometry>
        </mxCell>
        <mxCell id="V0LmtOdD6tVDb5vqFVER-185" value="" style="endArrow=block;endSize=16;endFill=0;html=1;" parent="1" source="V0LmtOdD6tVDb5vqFVER-140" target="V0LmtOdD6tVDb5vqFVER-110" edge="1">
          <mxGeometry x="-0.375" y="80" width="160" relative="1" as="geometry">
            <mxPoint x="-474.84000000000003" y="406.42857142857144" as="sourcePoint" />
            <mxPoint x="-314.84000000000003" y="406.42857142857144" as="targetPoint" />
            <mxPoint as="offset" />
            <Array as="points">
              <mxPoint x="-540.84" y="530.5" />
              <mxPoint x="-601.5" y="530.5" />
            </Array>
          </mxGeometry>
        </mxCell>
        <mxCell id="V0LmtOdD6tVDb5vqFVER-186" value="" style="endArrow=block;endSize=16;endFill=0;html=1;" parent="1" source="V0LmtOdD6tVDb5vqFVER-134" target="V0LmtOdD6tVDb5vqFVER-110" edge="1">
          <mxGeometry x="-0.375" y="80" width="160" relative="1" as="geometry">
            <mxPoint x="-914.84" y="361.5" as="sourcePoint" />
            <mxPoint x="-644.84" y="458.5" as="targetPoint" />
            <mxPoint as="offset" />
            <Array as="points">
              <mxPoint x="-733.84" y="530.5" />
              <mxPoint x="-601.5" y="530.5" />
            </Array>
          </mxGeometry>
        </mxCell>
        <mxCell id="V0LmtOdD6tVDb5vqFVER-201" value="*" style="text;align=center;fontStyle=1;verticalAlign=middle;spacingLeft=3;spacingRight=3;strokeColor=none;rotatable=0;points=[[0,0.5],[1,0.5]];portConstraint=eastwest;" parent="1" vertex="1">
          <mxGeometry x="151.5" y="-98" width="15" height="17" as="geometry" />
        </mxCell>
        <mxCell id="V0LmtOdD6tVDb5vqFVER-206" value="" style="endArrow=none;html=1;" parent="1" source="V0LmtOdD6tVDb5vqFVER-145" target="V0LmtOdD6tVDb5vqFVER-201" edge="1">
          <mxGeometry width="50" height="50" relative="1" as="geometry">
            <mxPoint x="61.97701149425279" y="-6" as="sourcePoint" />
            <mxPoint x="28.022988505747207" y="-111.5" as="targetPoint" />
          </mxGeometry>
        </mxCell>
        <mxCell id="V0LmtOdD6tVDb5vqFVER-200" value="1" style="text;align=center;fontStyle=1;verticalAlign=middle;spacingLeft=3;spacingRight=3;strokeColor=none;rotatable=0;points=[[0,0.5],[1,0.5]];portConstraint=eastwest;" parent="1" vertex="1">
          <mxGeometry x="154" y="-162" width="10" height="19" as="geometry" />
        </mxCell>
        <mxCell id="V0LmtOdD6tVDb5vqFVER-207" value="" style="endArrow=none;html=1;" parent="1" source="V0LmtOdD6tVDb5vqFVER-201" target="V0LmtOdD6tVDb5vqFVER-200" edge="1">
          <mxGeometry width="50" height="50" relative="1" as="geometry">
            <mxPoint x="46.28571428571422" y="-40.5" as="sourcePoint" />
            <mxPoint x="26" y="-111.5" as="targetPoint" />
          </mxGeometry>
        </mxCell>
        <mxCell id="V0LmtOdD6tVDb5vqFVER-199" value="*" style="text;align=center;fontStyle=1;verticalAlign=middle;spacingLeft=3;spacingRight=3;strokeColor=none;rotatable=0;points=[[0,0.5],[1,0.5]];portConstraint=eastwest;" parent="1" vertex="1">
          <mxGeometry x="246.5" y="-235.5" width="20" height="26" as="geometry" />
        </mxCell>
        <mxCell id="V0LmtOdD6tVDb5vqFVER-208" value="" style="endArrow=none;html=1;" parent="1" source="V0LmtOdD6tVDb5vqFVER-5" target="V0LmtOdD6tVDb5vqFVER-199" edge="1">
          <mxGeometry width="50" height="50" relative="1" as="geometry">
            <mxPoint x="90" y="-164.83333333333337" as="sourcePoint" />
            <mxPoint x="200" y="-161.16666666666663" as="targetPoint" />
          </mxGeometry>
        </mxCell>
        <mxCell id="V0LmtOdD6tVDb5vqFVER-214" value="*" style="text;align=center;fontStyle=1;verticalAlign=middle;spacingLeft=3;spacingRight=3;strokeColor=none;rotatable=0;points=[[0,0.5],[1,0.5]];portConstraint=eastwest;" parent="1" vertex="1">
          <mxGeometry x="462.5" y="-235.5" width="18" height="26" as="geometry" />
        </mxCell>
        <mxCell id="V0LmtOdD6tVDb5vqFVER-215" value="" style="endArrow=none;html=1;" parent="1" source="V0LmtOdD6tVDb5vqFVER-199" target="V0LmtOdD6tVDb5vqFVER-214" edge="1">
          <mxGeometry width="50" height="50" relative="1" as="geometry">
            <mxPoint x="125" y="-162.1470588235294" as="sourcePoint" />
            <mxPoint x="200" y="-160.38235294117646" as="targetPoint" />
          </mxGeometry>
        </mxCell>
        <mxCell id="V0LmtOdD6tVDb5vqFVER-222" value="1" style="text;align=center;fontStyle=1;verticalAlign=middle;spacingLeft=3;spacingRight=3;strokeColor=none;rotatable=0;points=[[0,0.5],[1,0.5]];portConstraint=eastwest;" parent="1" vertex="1">
          <mxGeometry x="-418.5" y="655" width="30" height="26" as="geometry" />
        </mxCell>
        <mxCell id="V0LmtOdD6tVDb5vqFVER-224" value="" style="endArrow=none;html=1;" parent="1" source="V0LmtOdD6tVDb5vqFVER-140" target="V0LmtOdD6tVDb5vqFVER-222" edge="1">
          <mxGeometry width="50" height="50" relative="1" as="geometry">
            <mxPoint x="-58.5" y="479.3701067615659" as="sourcePoint" />
            <mxPoint x="-23.5" y="476.5" as="targetPoint" />
          </mxGeometry>
        </mxCell>
        <mxCell id="V0LmtOdD6tVDb5vqFVER-221" value="1" style="text;align=center;fontStyle=1;verticalAlign=middle;spacingLeft=3;spacingRight=3;strokeColor=none;rotatable=0;points=[[0,0.5],[1,0.5]];portConstraint=eastwest;" parent="1" vertex="1">
          <mxGeometry x="386" y="654.5" width="30" height="26" as="geometry" />
        </mxCell>
        <mxCell id="V0LmtOdD6tVDb5vqFVER-225" value="" style="endArrow=none;html=1;entryX=0;entryY=0.5;entryDx=0;entryDy=0;" parent="1" source="V0LmtOdD6tVDb5vqFVER-222" target="V0LmtOdD6tVDb5vqFVER-221" edge="1">
          <mxGeometry width="50" height="50" relative="1" as="geometry">
            <mxPoint x="326.73943661971816" y="570.5" as="sourcePoint" />
            <mxPoint x="451.5" y="554" as="targetPoint" />
          </mxGeometry>
        </mxCell>
        <mxCell id="V0LmtOdD6tVDb5vqFVER-227" value="*" style="text;align=center;fontStyle=1;verticalAlign=middle;spacingLeft=3;spacingRight=3;strokeColor=none;rotatable=0;points=[[0,0.5],[1,0.5]];portConstraint=eastwest;" parent="1" vertex="1">
          <mxGeometry x="-499" y="157.5" width="23" height="26" as="geometry" />
        </mxCell>
        <mxCell id="V0LmtOdD6tVDb5vqFVER-228" value="" style="endArrow=none;html=1;" parent="1" source="V0LmtOdD6tVDb5vqFVER-97" target="V0LmtOdD6tVDb5vqFVER-227" edge="1">
          <mxGeometry width="50" height="50" relative="1" as="geometry">
            <mxPoint x="-283.5" y="55.5390625" as="sourcePoint" />
            <mxPoint x="-178.5" y="56.6875" as="targetPoint" />
          </mxGeometry>
        </mxCell>
        <mxCell id="V0LmtOdD6tVDb5vqFVER-226" value="*" style="text;align=center;fontStyle=1;verticalAlign=middle;spacingLeft=3;spacingRight=3;strokeColor=none;rotatable=0;points=[[0,0.5],[1,0.5]];portConstraint=eastwest;" parent="1" vertex="1">
          <mxGeometry x="10" y="19.5" width="15" height="14" as="geometry" />
        </mxCell>
        <mxCell id="V0LmtOdD6tVDb5vqFVER-229" value="" style="endArrow=none;html=1;" parent="1" source="V0LmtOdD6tVDb5vqFVER-227" target="V0LmtOdD6tVDb5vqFVER-226" edge="1">
          <mxGeometry width="50" height="50" relative="1" as="geometry">
            <mxPoint x="-251.5" y="55.68028846153857" as="sourcePoint" />
            <mxPoint x="-133.5" y="36.5" as="targetPoint" />
            <Array as="points">
              <mxPoint x="-228.5" y="170.5" />
              <mxPoint x="-228.5" y="26.5" />
            </Array>
          </mxGeometry>
        </mxCell>
        <mxCell id="V0LmtOdD6tVDb5vqFVER-230" value="" style="endArrow=diamondThin;endFill=1;endSize=24;html=1;" parent="1" source="V0LmtOdD6tVDb5vqFVER-212" target="V0LmtOdD6tVDb5vqFVER-1" edge="1">
          <mxGeometry width="160" relative="1" as="geometry">
            <mxPoint x="564" y="388" as="sourcePoint" />
            <mxPoint x="564" y="508" as="targetPoint" />
          </mxGeometry>
        </mxCell>
        <mxCell id="V0LmtOdD6tVDb5vqFVER-231" value="" style="endArrow=diamondThin;endFill=1;endSize=24;html=1;" parent="1" source="V0LmtOdD6tVDb5vqFVER-213" target="V0LmtOdD6tVDb5vqFVER-15" edge="1">
          <mxGeometry width="160" relative="1" as="geometry">
            <mxPoint x="720" y="-259.5" as="sourcePoint" />
            <mxPoint x="560" y="195.5" as="targetPoint" />
          </mxGeometry>
        </mxCell>
        <mxCell id="V0LmtOdD6tVDb5vqFVER-262" value="" style="endArrow=block;endSize=16;endFill=0;html=1;exitX=0.5;exitY=0;exitDx=0;exitDy=0;" parent="1" source="V0LmtOdD6tVDb5vqFVER-97" target="V0LmtOdD6tVDb5vqFVER-253" edge="1">
          <mxGeometry x="-0.375" y="80" width="160" relative="1" as="geometry">
            <mxPoint x="-383.5" y="-47.5" as="sourcePoint" />
            <mxPoint x="-598.5" y="178.5" as="targetPoint" />
            <mxPoint as="offset" />
          </mxGeometry>
        </mxCell>
        <mxCell id="4-U4TnDnE4Jb1s5aNsce-1" value="" style="endArrow=none;html=1;entryX=0.005;entryY=0.635;entryDx=0;entryDy=0;entryPerimeter=0;" parent="1" source="4-U4TnDnE4Jb1s5aNsce-3" target="V0LmtOdD6tVDb5vqFVER-139" edge="1">
          <mxGeometry width="50" height="50" relative="1" as="geometry">
            <mxPoint x="-80" y="-152" as="sourcePoint" />
            <mxPoint x="90" y="168" as="targetPoint" />
          </mxGeometry>
        </mxCell>
        <mxCell id="-zo8gGR_CR5di19dO_bF-3" style="edgeStyle=orthogonalEdgeStyle;rounded=0;orthogonalLoop=1;jettySize=auto;html=1;exitX=0;exitY=0.5;exitDx=0;exitDy=0;endArrow=none;endFill=0;" parent="1" source="4-U4TnDnE4Jb1s5aNsce-2" target="V0LmtOdD6tVDb5vqFVER-78" edge="1">
          <mxGeometry relative="1" as="geometry" />
        </mxCell>
        <mxCell id="4-U4TnDnE4Jb1s5aNsce-2" value="10..*" style="text;align=center;fontStyle=1;verticalAlign=middle;spacingLeft=3;spacingRight=3;strokeColor=none;rotatable=0;points=[[0,0.5],[1,0.5]];portConstraint=eastwest;" parent="1" vertex="1">
          <mxGeometry x="-255.5" y="351.5" width="30" height="15" as="geometry" />
        </mxCell>
        <mxCell id="4-U4TnDnE4Jb1s5aNsce-3" value="1" style="text;align=center;fontStyle=1;verticalAlign=middle;spacingLeft=3;spacingRight=3;strokeColor=none;rotatable=0;points=[[0,0.5],[1,0.5]];portConstraint=eastwest;" parent="1" vertex="1">
          <mxGeometry x="371.5" y="346" width="30" height="26" as="geometry" />
        </mxCell>
        <mxCell id="4-U4TnDnE4Jb1s5aNsce-8" value="" style="endArrow=none;html=1;" parent="1" source="4-U4TnDnE4Jb1s5aNsce-3" target="4-U4TnDnE4Jb1s5aNsce-2" edge="1">
          <mxGeometry width="50" height="50" relative="1" as="geometry">
            <mxPoint x="96.5" y="255.99999999999977" as="sourcePoint" />
            <mxPoint x="-268.5" y="-149.38461538461547" as="targetPoint" />
          </mxGeometry>
        </mxCell>
        <mxCell id="4-U4TnDnE4Jb1s5aNsce-12" value="przypisany/a do" style="text;html=1;strokeColor=none;fillColor=none;align=center;verticalAlign=middle;whiteSpace=wrap;rounded=0;" parent="1" vertex="1">
          <mxGeometry x="-144.5" y="356.5" width="110" height="20" as="geometry" />
        </mxCell>
        <mxCell id="4-U4TnDnE4Jb1s5aNsce-14" value="prowadzi" style="text;html=1;strokeColor=none;fillColor=none;align=center;verticalAlign=middle;whiteSpace=wrap;rounded=0;rotation=0;" parent="1" vertex="1">
          <mxGeometry x="94" y="648" width="40" height="20" as="geometry" />
        </mxCell>
        <mxCell id="4-U4TnDnE4Jb1s5aNsce-22" value="przeprowadza" style="text;html=1;strokeColor=none;fillColor=none;align=center;verticalAlign=middle;whiteSpace=wrap;rounded=0;" parent="1" vertex="1">
          <mxGeometry x="-132" y="26.5" width="40" height="17" as="geometry" />
        </mxCell>
        <mxCell id="4-U4TnDnE4Jb1s5aNsce-23" value="przechodzi" style="text;html=1;strokeColor=none;fillColor=none;align=center;verticalAlign=middle;whiteSpace=wrap;rounded=0;" parent="1" vertex="1">
          <mxGeometry x="101.5" y="-125.5" width="40" height="20" as="geometry" />
        </mxCell>
        <mxCell id="4-U4TnDnE4Jb1s5aNsce-26" value="przypisany/a do" style="text;html=1;strokeColor=none;fillColor=none;align=center;verticalAlign=middle;whiteSpace=wrap;rounded=0;" parent="1" vertex="1">
          <mxGeometry x="306" y="-221.5" width="110" height="20" as="geometry" />
        </mxCell>
        <mxCell id="4-U4TnDnE4Jb1s5aNsce-29" value="{&lt;span&gt;iloscÅÃ³Å¼ek-&lt;/span&gt;&lt;span&gt;iloscZajÄtychÅÃ³Å¼ek&lt;/span&gt;}" style="shape=note;whiteSpace=wrap;html=1;size=14;verticalAlign=top;align=left;spacingTop=-6;" parent="1" vertex="1">
          <mxGeometry x="601.5" y="-102" width="198" height="25" as="geometry" />
        </mxCell>
        <mxCell id="4-U4TnDnE4Jb1s5aNsce-30" value="" style="endArrow=none;html=1;" parent="1" source="V0LmtOdD6tVDb5vqFVER-192" target="4-U4TnDnE4Jb1s5aNsce-29" edge="1">
          <mxGeometry width="50" height="50" relative="1" as="geometry">
            <mxPoint x="636.5" y="-123.5" as="sourcePoint" />
            <mxPoint x="664" y="-115.91379310344837" as="targetPoint" />
          </mxGeometry>
        </mxCell>
        <mxCell id="UwL4nr-0CrQPaEN5aRNv-1" value="" style="endArrow=none;dashed=1;html=1;" parent="1" source="UwL4nr-0CrQPaEN5aRNv-2" target="4-U4TnDnE4Jb1s5aNsce-22" edge="1">
          <mxGeometry width="50" height="50" relative="1" as="geometry">
            <mxPoint x="-123.5" y="116.5" as="sourcePoint" />
            <mxPoint x="-83.5" y="16.5" as="targetPoint" />
          </mxGeometry>
        </mxCell>
        <mxCell id="bHVNC20wXIVItzgnzhsU-15" value="" style="endArrow=block;endSize=16;endFill=0;html=1;" parent="1" source="bHVNC20wXIVItzgnzhsU-11" target="V0LmtOdD6tVDb5vqFVER-145" edge="1">
          <mxGeometry x="-0.375" y="80" width="160" relative="1" as="geometry">
            <mxPoint x="214" y="173" as="sourcePoint" />
            <mxPoint x="159.375" y="117.5" as="targetPoint" />
            <mxPoint as="offset" />
            <Array as="points">
              <mxPoint x="297.5" y="156.5" />
              <mxPoint x="160.5" y="156.5" />
            </Array>
          </mxGeometry>
        </mxCell>
        <mxCell id="bHVNC20wXIVItzgnzhsU-16" value="" style="endArrow=block;endSize=16;endFill=0;html=1;" parent="1" source="bHVNC20wXIVItzgnzhsU-1" target="V0LmtOdD6tVDb5vqFVER-145" edge="1">
          <mxGeometry x="-0.375" y="80" width="160" relative="1" as="geometry">
            <mxPoint x="102" y="182" as="sourcePoint" />
            <mxPoint x="102" y="94.5" as="targetPoint" />
            <mxPoint as="offset" />
            <Array as="points">
              <mxPoint x="96.5" y="156.5" />
              <mxPoint x="160.5" y="156.5" />
            </Array>
          </mxGeometry>
        </mxCell>
        <mxCell id="bHVNC20wXIVItzgnzhsU-19" value="{complete}" style="text;html=1;resizable=0;points=[];autosize=1;align=left;verticalAlign=top;spacingTop=-4;" parent="1" vertex="1">
          <mxGeometry x="164" y="131.5" width="70" height="20" as="geometry" />
        </mxCell>
        <mxCell id="bHVNC20wXIVItzgnzhsU-20" value="rodzaj znieczulenia" style="text;html=1;resizable=0;points=[];autosize=1;align=left;verticalAlign=top;spacingTop=-4;" parent="1" vertex="1">
          <mxGeometry x="116.5" y="156.5" width="120" height="20" as="geometry" />
        </mxCell>
        <mxCell id="bHVNC20wXIVItzgnzhsU-25" value="" style="endArrow=block;html=1;endFill=0;endSize=16;" parent="1" source="bHVNC20wXIVItzgnzhsU-70" target="V0LmtOdD6tVDb5vqFVER-253" edge="1">
          <mxGeometry width="50" height="50" relative="1" as="geometry">
            <mxPoint x="-378.5" y="-136" as="sourcePoint" />
            <mxPoint x="-523.5" y="21.5" as="targetPoint" />
            <Array as="points">
              <mxPoint x="-603.5" y="66.5" />
            </Array>
          </mxGeometry>
        </mxCell>
        <mxCell id="bHVNC20wXIVItzgnzhsU-26" value="{complete}" style="text;html=1;resizable=0;points=[];autosize=1;align=left;verticalAlign=top;spacingTop=-4;" parent="1" vertex="1">
          <mxGeometry x="-499" y="-60.5" width="70" height="20" as="geometry" />
        </mxCell>
        <mxCell id="bHVNC20wXIVItzgnzhsU-28" value="{complete,overlapping}" style="text;html=1;resizable=0;points=[];autosize=1;align=left;verticalAlign=top;spacingTop=-4;" parent="1" vertex="1">
          <mxGeometry x="-710.6095145089286" y="530.5" width="140" height="20" as="geometry" />
        </mxCell>
        <mxCell id="bHVNC20wXIVItzgnzhsU-41" value="{complete}" style="text;html=1;resizable=0;points=[];autosize=1;align=left;verticalAlign=top;spacingTop=-4;" parent="1" vertex="1">
          <mxGeometry x="-372.5" y="92.5" width="70" height="20" as="geometry" />
        </mxCell>
        <mxCell id="bHVNC20wXIVItzgnzhsU-83" value="{maÅo inwazyjny,&lt;br&gt;inwazyjny,&lt;br&gt;normalny,&lt;br&gt;niebezpieczny}" style="shape=note;whiteSpace=wrap;html=1;size=14;verticalAlign=top;align=left;spacingTop=-6;" parent="1" vertex="1">
          <mxGeometry x="348.5" y="81.5" width="119" height="70" as="geometry" />
        </mxCell>
        <mxCell id="bHVNC20wXIVItzgnzhsU-84" value="" style="endArrow=none;html=1;exitX=1;exitY=0.5;exitDx=0;exitDy=0;" parent="1" source="bHVNC20wXIVItzgnzhsU-81" target="bHVNC20wXIVItzgnzhsU-83" edge="1">
          <mxGeometry width="50" height="50" relative="1" as="geometry">
            <mxPoint x="169" y="-88" as="sourcePoint" />
            <mxPoint x="169" y="-133" as="targetPoint" />
          </mxGeometry>
        </mxCell>
        <mxCell id="bHVNC20wXIVItzgnzhsU-90" value="{&lt;span&gt;w trakcie planowania,&lt;br&gt;trwajÄcy,&lt;br&gt;przeprowadzony,&lt;br&gt;anulowany&lt;/span&gt;}" style="shape=note;whiteSpace=wrap;html=1;size=14;verticalAlign=top;align=left;spacingTop=-6;" parent="1" vertex="1">
          <mxGeometry x="-78" y="95" width="103" height="93" as="geometry" />
        </mxCell>
        <mxCell id="bHVNC20wXIVItzgnzhsU-91" value="" style="endArrow=none;html=1;exitX=0;exitY=0.5;exitDx=0;exitDy=0;" parent="1" source="bHVNC20wXIVItzgnzhsU-55" target="bHVNC20wXIVItzgnzhsU-90" edge="1">
          <mxGeometry width="50" height="50" relative="1" as="geometry">
            <mxPoint x="289" y="78.88926174496646" as="sourcePoint" />
            <mxPoint x="333" y="78.29865771812081" as="targetPoint" />
          </mxGeometry>
        </mxCell>
        <mxCell id="bHVNC20wXIVItzgnzhsU-93" value="nowy ordynator jest wybierany&lt;br&gt;&amp;nbsp;co 6 lat po przez gÅosowanie lekarzy&amp;nbsp;" style="shape=note;whiteSpace=wrap;html=1;size=14;verticalAlign=top;align=left;spacingTop=-6;" parent="1" vertex="1">
          <mxGeometry x="-468.5" y="547.5" width="213" height="36" as="geometry" />
        </mxCell>
        <mxCell id="bHVNC20wXIVItzgnzhsU-94" value="" style="endArrow=none;html=1;entryX=1;entryY=0.5;entryDx=0;entryDy=0;" parent="1" source="bHVNC20wXIVItzgnzhsU-93" target="V0LmtOdD6tVDb5vqFVER-141" edge="1">
          <mxGeometry width="50" height="50" relative="1" as="geometry">
            <mxPoint x="-177" y="399" as="sourcePoint" />
            <mxPoint x="-177" y="466" as="targetPoint" />
          </mxGeometry>
        </mxCell>
        <mxCell id="rCnhfqY2OLRex3ZZ7v3C-1" value="obchÃ³d jest wykonywany co 12 godzin" style="shape=note;whiteSpace=wrap;html=1;size=14;verticalAlign=top;align=left;spacingTop=-6;" parent="1" vertex="1">
          <mxGeometry x="-410.5" y="736.5" width="118" height="60" as="geometry" />
        </mxCell>
        <mxCell id="rCnhfqY2OLRex3ZZ7v3C-2" value="" style="endArrow=none;html=1;" parent="1" source="rCnhfqY2OLRex3ZZ7v3C-1" target="V0LmtOdD6tVDb5vqFVER-140" edge="1">
          <mxGeometry width="50" height="50" relative="1" as="geometry">
            <mxPoint x="-132" y="499" as="sourcePoint" />
            <mxPoint x="-343.5" y="537.5" as="targetPoint" />
          </mxGeometry>
        </mxCell>
        <mxCell id="QW0Tkb8NWoerMvYiUr-m-1" value="wyliczane za pomocÄ peselu" style="shape=note;whiteSpace=wrap;html=1;size=14;verticalAlign=top;align=left;spacingTop=-6;" parent="1" vertex="1">
          <mxGeometry x="-410.5" y="-433.5" width="100" height="70" as="geometry" />
        </mxCell>
        <mxCell id="QW0Tkb8NWoerMvYiUr-m-2" value="" style="endArrow=none;html=1;" parent="1" source="8IMbzi-j8LDuRa3O1iAD-1" target="QW0Tkb8NWoerMvYiUr-m-1" edge="1">
          <mxGeometry width="50" height="50" relative="1" as="geometry">
            <mxPoint x="-588.5" y="-293.5" as="sourcePoint" />
            <mxPoint x="-538.5" y="-343.5" as="targetPoint" />
          </mxGeometry>
        </mxCell>
        <mxCell id="QW0Tkb8NWoerMvYiUr-m-3" value="" style="endArrow=none;html=1;" parent="1" source="V0LmtOdD6tVDb5vqFVER-251" target="QW0Tkb8NWoerMvYiUr-m-1" edge="1">
          <mxGeometry width="50" height="50" relative="1" as="geometry">
            <mxPoint x="-578.5" y="-233.5" as="sourcePoint" />
            <mxPoint x="-528.5" y="-283.5" as="targetPoint" />
          </mxGeometry>
        </mxCell>
        <mxCell id="3UNuwxAZc76_865ZEH3p-2" value="" style="endArrow=none;dashed=1;html=1;exitX=0.5;exitY=0;exitDx=0;exitDy=0;" parent="1" source="4-U4TnDnE4Jb1s5aNsce-26" target="YwFuL6sDTb0NZOChiDxO-3" edge="1">
          <mxGeometry width="50" height="50" relative="1" as="geometry">
            <mxPoint x="71.5" y="-13.5" as="sourcePoint" />
            <mxPoint x="121.5" y="-63.5" as="targetPoint" />
          </mxGeometry>
        </mxCell>
        <mxCell id="-zo8gGR_CR5di19dO_bF-5" value="&lt;span style=&quot;text-align: left&quot;&gt;{complete,overlapping}&lt;/span&gt;" style="text;html=1;align=center;verticalAlign=middle;resizable=0;points=[];autosize=1;" parent="1" vertex="1">
          <mxGeometry x="-558.5" y="-243.5" width="140" height="20" as="geometry" />
        </mxCell>
        <mxCell id="V0LmtOdD6tVDb5vqFVER-209" value="5..*" style="text;align=center;fontStyle=1;verticalAlign=middle;spacingLeft=3;spacingRight=3;strokeColor=none;rotatable=0;points=[[0,0.5],[1,0.5]];portConstraint=eastwest;" parent="1" vertex="1">
          <mxGeometry x="549" y="-141.5" width="30" height="26" as="geometry" />
        </mxCell>
        <mxCell id="-zo8gGR_CR5di19dO_bF-6" value="" style="endArrow=none;endFill=0;endSize=24;html=1;" parent="1" source="V0LmtOdD6tVDb5vqFVER-20" target="V0LmtOdD6tVDb5vqFVER-209" edge="1">
          <mxGeometry width="160" relative="1" as="geometry">
            <mxPoint x="564" y="-158.5" as="sourcePoint" />
            <mxPoint x="564" y="308.5" as="targetPoint" />
          </mxGeometry>
        </mxCell>
        <mxCell id="V0LmtOdD6tVDb5vqFVER-213" value="1" style="text;align=center;fontStyle=1;verticalAlign=middle;spacingLeft=3;spacingRight=3;strokeColor=none;rotatable=0;points=[[0,0.5],[1,0.5]];portConstraint=eastwest;" parent="1" vertex="1">
          <mxGeometry x="549" y="246.5" width="30" height="26" as="geometry" />
        </mxCell>
        <mxCell id="-zo8gGR_CR5di19dO_bF-7" value="" style="endArrow=none;endFill=0;endSize=24;html=1;" parent="1" source="V0LmtOdD6tVDb5vqFVER-209" target="V0LmtOdD6tVDb5vqFVER-213" edge="1">
          <mxGeometry width="160" relative="1" as="geometry">
            <mxPoint x="564" y="-115.5" as="sourcePoint" />
            <mxPoint x="564" y="308.5" as="targetPoint" />
          </mxGeometry>
        </mxCell>
        <mxCell id="V0LmtOdD6tVDb5vqFVER-212" value="1" style="text;align=center;fontStyle=1;verticalAlign=middle;spacingLeft=3;spacingRight=3;strokeColor=none;rotatable=0;points=[[0,0.5],[1,0.5]];portConstraint=eastwest;" parent="1" vertex="1">
          <mxGeometry x="549" y="486.5" width="30" height="26" as="geometry" />
        </mxCell>
        <mxCell id="-zo8gGR_CR5di19dO_bF-9" value="" style="endArrow=none;endFill=0;endSize=24;html=1;" parent="1" source="V0LmtOdD6tVDb5vqFVER-220" target="V0LmtOdD6tVDb5vqFVER-212" edge="1">
          <mxGeometry width="160" relative="1" as="geometry">
            <mxPoint x="564" y="386.5" as="sourcePoint" />
            <mxPoint x="564" y="541.5" as="targetPoint" />
          </mxGeometry>
        </mxCell>
        <mxCell id="V0LmtOdD6tVDb5vqFVER-220" value="1..*" style="text;align=center;fontStyle=1;verticalAlign=middle;spacingLeft=3;spacingRight=3;strokeColor=none;rotatable=0;points=[[0,0.5],[1,0.5]];portConstraint=eastwest;" parent="1" vertex="1">
          <mxGeometry x="549" y="406.5" width="30" height="26" as="geometry" />
        </mxCell>
        <mxCell id="-zo8gGR_CR5di19dO_bF-10" value="" style="endArrow=none;endFill=0;endSize=24;html=1;" parent="1" source="V0LmtOdD6tVDb5vqFVER-15" target="V0LmtOdD6tVDb5vqFVER-220" edge="1">
          <mxGeometry width="160" relative="1" as="geometry">
            <mxPoint x="561.9401408450703" y="386.5" as="sourcePoint" />
            <mxPoint x="557.1866197183099" y="476.5" as="targetPoint" />
          </mxGeometry>
        </mxCell>
        <mxCell id="V0LmtOdD6tVDb5vqFVER-20" value="PokÃ³j" style="swimlane;fontStyle=1;align=center;verticalAlign=top;childLayout=stackLayout;horizontal=1;startSize=26;horizontalStack=0;resizeParent=1;resizeParentMax=0;resizeLast=0;collapsible=1;marginBottom=0;" parent="1" vertex="1">
          <mxGeometry x="496.5" y="-288.5" width="135" height="130" as="geometry" />
        </mxCell>
        <mxCell id="V0LmtOdD6tVDb5vqFVER-21" value="numer pokoju" style="text;strokeColor=none;fillColor=none;align=left;verticalAlign=top;spacingLeft=4;spacingRight=4;overflow=hidden;rotatable=0;points=[[0,0.5],[1,0.5]];portConstraint=eastwest;" parent="V0LmtOdD6tVDb5vqFVER-20" vertex="1">
          <mxGeometry y="26" width="135" height="26" as="geometry" />
        </mxCell>
        <mxCell id="V0LmtOdD6tVDb5vqFVER-40" value="iloÅÄ ÅÃ³Å¼ek{&lt;1,8&gt;}" style="text;strokeColor=none;fillColor=none;align=left;verticalAlign=top;spacingLeft=4;spacingRight=4;overflow=hidden;rotatable=0;points=[[0,0.5],[1,0.5]];portConstraint=eastwest;" parent="V0LmtOdD6tVDb5vqFVER-20" vertex="1">
          <mxGeometry y="52" width="135" height="26" as="geometry" />
        </mxCell>
        <mxCell id="V0LmtOdD6tVDb5vqFVER-41" value="iloÅÄ zajÄtych ÅÃ³Å¼ek" style="text;strokeColor=none;fillColor=none;align=left;verticalAlign=top;spacingLeft=4;spacingRight=4;overflow=hidden;rotatable=0;points=[[0,0.5],[1,0.5]];portConstraint=eastwest;" parent="V0LmtOdD6tVDb5vqFVER-20" vertex="1">
          <mxGeometry y="78" width="135" height="26" as="geometry" />
        </mxCell>
        <mxCell id="V0LmtOdD6tVDb5vqFVER-192" value="/iloÅÄ wolnych ÅÃ³Å¼ek" style="text;strokeColor=none;fillColor=none;align=left;verticalAlign=top;spacingLeft=4;spacingRight=4;overflow=hidden;rotatable=0;points=[[0,0.5],[1,0.5]];portConstraint=eastwest;" parent="V0LmtOdD6tVDb5vqFVER-20" vertex="1">
          <mxGeometry y="104" width="135" height="26" as="geometry" />
        </mxCell>
        <mxCell id="V0LmtOdD6tVDb5vqFVER-5" value="Pacjent" style="swimlane;fontStyle=1;align=center;verticalAlign=top;childLayout=stackLayout;horizontal=1;startSize=26;horizontalStack=0;resizeParent=1;resizeParentMax=0;resizeLast=0;collapsible=1;marginBottom=0;" parent="1" vertex="1">
          <mxGeometry x="84" y="-266.5" width="140" height="86" as="geometry" />
        </mxCell>
        <mxCell id="V0LmtOdD6tVDb5vqFVER-57" value="data przyjÄcia" style="text;strokeColor=none;fillColor=none;align=left;verticalAlign=top;spacingLeft=4;spacingRight=4;overflow=hidden;rotatable=0;points=[[0,0.5],[1,0.5]];portConstraint=eastwest;" parent="V0LmtOdD6tVDb5vqFVER-5" vertex="1">
          <mxGeometry y="26" width="140" height="26" as="geometry" />
        </mxCell>
        <mxCell id="V0LmtOdD6tVDb5vqFVER-7" value="" style="line;strokeWidth=1;fillColor=none;align=left;verticalAlign=middle;spacingTop=-1;spacingLeft=3;spacingRight=3;rotatable=0;labelPosition=right;points=[];portConstraint=eastwest;" parent="V0LmtOdD6tVDb5vqFVER-5" vertex="1">
          <mxGeometry y="52" width="140" height="8" as="geometry" />
        </mxCell>
        <mxCell id="V0LmtOdD6tVDb5vqFVER-8" value="wypisNaÅ»Ädanie()" style="text;strokeColor=none;fillColor=none;align=left;verticalAlign=top;spacingLeft=4;spacingRight=4;overflow=hidden;rotatable=0;points=[[0,0.5],[1,0.5]];portConstraint=eastwest;" parent="V0LmtOdD6tVDb5vqFVER-5" vertex="1">
          <mxGeometry y="60" width="140" height="26" as="geometry" />
        </mxCell>
        <mxCell id="V0LmtOdD6tVDb5vqFVER-145" value="Zabieg{abstract}" style="swimlane;fontStyle=1;align=center;verticalAlign=top;childLayout=stackLayout;horizontal=1;startSize=26;horizontalStack=0;resizeParent=1;resizeParentMax=0;resizeLast=0;collapsible=1;marginBottom=0;" parent="1" vertex="1">
          <mxGeometry x="39" y="-60" width="240" height="164" as="geometry" />
        </mxCell>
        <mxCell id="V0LmtOdD6tVDb5vqFVER-149" value="nazwa" style="text;strokeColor=none;fillColor=none;align=left;verticalAlign=top;spacingLeft=4;spacingRight=4;overflow=hidden;rotatable=0;points=[[0,0.5],[1,0.5]];portConstraint=eastwest;" parent="V0LmtOdD6tVDb5vqFVER-145" vertex="1">
          <mxGeometry y="26" width="240" height="26" as="geometry" />
        </mxCell>
        <mxCell id="bHVNC20wXIVItzgnzhsU-76" value="opis" style="text;strokeColor=none;fillColor=none;align=left;verticalAlign=top;spacingLeft=4;spacingRight=4;overflow=hidden;rotatable=0;points=[[0,0.5],[1,0.5]];portConstraint=eastwest;" parent="V0LmtOdD6tVDb5vqFVER-145" vertex="1">
          <mxGeometry y="52" width="240" height="26" as="geometry" />
        </mxCell>
        <mxCell id="bHVNC20wXIVItzgnzhsU-75" value="cena" style="text;strokeColor=none;fillColor=none;align=left;verticalAlign=top;spacingLeft=4;spacingRight=4;overflow=hidden;rotatable=0;points=[[0,0.5],[1,0.5]];portConstraint=eastwest;" parent="V0LmtOdD6tVDb5vqFVER-145" vertex="1">
          <mxGeometry y="78" width="240" height="26" as="geometry" />
        </mxCell>
        <mxCell id="bHVNC20wXIVItzgnzhsU-55" value="status" style="text;strokeColor=none;fillColor=none;align=left;verticalAlign=top;spacingLeft=4;spacingRight=4;overflow=hidden;rotatable=0;points=[[0,0.5],[1,0.5]];portConstraint=eastwest;" parent="V0LmtOdD6tVDb5vqFVER-145" vertex="1">
          <mxGeometry y="104" width="240" height="26" as="geometry" />
        </mxCell>
        <mxCell id="bHVNC20wXIVItzgnzhsU-81" value="rodzaj" style="text;strokeColor=none;fillColor=none;align=left;verticalAlign=top;spacingLeft=4;spacingRight=4;overflow=hidden;rotatable=0;points=[[0,0.5],[1,0.5]];portConstraint=eastwest;" parent="V0LmtOdD6tVDb5vqFVER-145" vertex="1">
          <mxGeometry y="130" width="240" height="26" as="geometry" />
        </mxCell>
        <mxCell id="V0LmtOdD6tVDb5vqFVER-147" value="" style="line;strokeWidth=1;fillColor=none;align=left;verticalAlign=middle;spacingTop=-1;spacingLeft=3;spacingRight=3;rotatable=0;labelPosition=right;points=[];portConstraint=eastwest;" parent="V0LmtOdD6tVDb5vqFVER-145" vertex="1">
          <mxGeometry y="156" width="240" height="8" as="geometry" />
        </mxCell>
        <mxCell id="V0LmtOdD6tVDb5vqFVER-253" value="Pracownik{abstract}" style="swimlane;fontStyle=1;align=center;verticalAlign=top;childLayout=stackLayout;horizontal=1;startSize=26;horizontalStack=0;resizeParent=1;resizeParentMax=0;resizeLast=0;collapsible=1;marginBottom=0;" parent="1" vertex="1">
          <mxGeometry x="-683.5" y="-92.5" width="160" height="104" as="geometry" />
        </mxCell>
        <mxCell id="bHVNC20wXIVItzgnzhsU-46" value="pensja" style="text;strokeColor=none;fillColor=none;align=left;verticalAlign=top;spacingLeft=4;spacingRight=4;overflow=hidden;rotatable=0;points=[[0,0.5],[1,0.5]];portConstraint=eastwest;" parent="V0LmtOdD6tVDb5vqFVER-253" vertex="1">
          <mxGeometry y="26" width="160" height="20" as="geometry" />
        </mxCell>
        <mxCell id="V0LmtOdD6tVDb5vqFVER-193" value="wyksztaÅcenie" style="text;strokeColor=none;fillColor=none;align=left;verticalAlign=top;spacingLeft=4;spacingRight=4;overflow=hidden;rotatable=0;points=[[0,0.5],[1,0.5]];portConstraint=eastwest;" parent="V0LmtOdD6tVDb5vqFVER-253" vertex="1">
          <mxGeometry y="46" width="160" height="20" as="geometry" />
        </mxCell>
        <mxCell id="V0LmtOdD6tVDb5vqFVER-255" value="" style="line;strokeWidth=1;fillColor=none;align=left;verticalAlign=middle;spacingTop=-1;spacingLeft=3;spacingRight=3;rotatable=0;labelPosition=right;points=[];portConstraint=eastwest;" parent="V0LmtOdD6tVDb5vqFVER-253" vertex="1">
          <mxGeometry y="66" width="160" height="8" as="geometry" />
        </mxCell>
        <mxCell id="bHVNC20wXIVItzgnzhsU-80" value="wylicz dochÃ³d miesiÄczny()" style="text;strokeColor=none;fillColor=none;align=left;verticalAlign=top;spacingLeft=4;spacingRight=4;overflow=hidden;rotatable=0;points=[[0,0.5],[1,0.5]];portConstraint=eastwest;" parent="V0LmtOdD6tVDb5vqFVER-253" vertex="1">
          <mxGeometry y="74" width="160" height="30" as="geometry" />
        </mxCell>
        <mxCell id="UwL4nr-0CrQPaEN5aRNv-2" value="Terminarz pracownikÃ³w" style="swimlane;fontStyle=0;childLayout=stackLayout;horizontal=1;startSize=26;fillColor=none;horizontalStack=0;resizeParent=1;resizeParentMax=0;resizeLast=0;collapsible=1;marginBottom=0;" parent="1" vertex="1">
          <mxGeometry x="-188.5" y="-167.5" width="154" height="104" as="geometry" />
        </mxCell>
        <mxCell id="UwL4nr-0CrQPaEN5aRNv-3" value="dataprzeprowadzenia" style="text;strokeColor=none;fillColor=none;align=left;verticalAlign=top;spacingLeft=4;spacingRight=4;overflow=hidden;rotatable=0;points=[[0,0.5],[1,0.5]];portConstraint=eastwest;" parent="UwL4nr-0CrQPaEN5aRNv-2" vertex="1">
          <mxGeometry y="26" width="154" height="26" as="geometry" />
        </mxCell>
        <mxCell id="bHVNC20wXIVItzgnzhsU-34" value="godzina rozpoczÄcia" style="text;strokeColor=none;fillColor=none;align=left;verticalAlign=top;spacingLeft=4;spacingRight=4;overflow=hidden;rotatable=0;points=[[0,0.5],[1,0.5]];portConstraint=eastwest;" parent="UwL4nr-0CrQPaEN5aRNv-2" vertex="1">
          <mxGeometry y="52" width="154" height="26" as="geometry" />
        </mxCell>
        <mxCell id="bHVNC20wXIVItzgnzhsU-35" value="godzina zakoÅczenia" style="text;strokeColor=none;fillColor=none;align=left;verticalAlign=top;spacingLeft=4;spacingRight=4;overflow=hidden;rotatable=0;points=[[0,0.5],[1,0.5]];portConstraint=eastwest;" parent="UwL4nr-0CrQPaEN5aRNv-2" vertex="1">
          <mxGeometry y="78" width="154" height="26" as="geometry" />
        </mxCell>
        <mxCell id="bHVNC20wXIVItzgnzhsU-1" value="Zabieg w znieczuleniu&#xa;Â ogÃ³lnym" style="swimlane;fontStyle=0;childLayout=stackLayout;horizontal=1;startSize=41;fillColor=none;horizontalStack=0;resizeParent=1;resizeParentMax=0;resizeLast=0;collapsible=1;marginBottom=0;" parent="1" vertex="1">
          <mxGeometry x="7" y="236" width="178" height="93" as="geometry" />
        </mxCell>
        <mxCell id="bHVNC20wXIVItzgnzhsU-2" value="czas trwania wybudzenia" style="text;strokeColor=none;fillColor=none;align=left;verticalAlign=top;spacingLeft=4;spacingRight=4;overflow=hidden;rotatable=0;points=[[0,0.5],[1,0.5]];portConstraint=eastwest;" parent="bHVNC20wXIVItzgnzhsU-1" vertex="1">
          <mxGeometry y="41" width="178" height="26" as="geometry" />
        </mxCell>
        <mxCell id="bHVNC20wXIVItzgnzhsU-3" value="czas trwania zabiegu" style="text;strokeColor=none;fillColor=none;align=left;verticalAlign=top;spacingLeft=4;spacingRight=4;overflow=hidden;rotatable=0;points=[[0,0.5],[1,0.5]];portConstraint=eastwest;" parent="bHVNC20wXIVItzgnzhsU-1" vertex="1">
          <mxGeometry y="67" width="178" height="26" as="geometry" />
        </mxCell>
        <mxCell id="bHVNC20wXIVItzgnzhsU-11" value="Zabieg w znieczuleniu&#xa;Â miejscowym" style="swimlane;fontStyle=0;childLayout=stackLayout;horizontal=1;startSize=41;fillColor=none;horizontalStack=0;resizeParent=1;resizeParentMax=0;resizeLast=0;collapsible=1;marginBottom=0;" parent="1" vertex="1">
          <mxGeometry x="192.5" y="236.5" width="219" height="90" as="geometry" />
        </mxCell>
        <mxCell id="bHVNC20wXIVItzgnzhsU-6" value="lek znieczulajacy" style="text;strokeColor=none;fillColor=none;align=left;verticalAlign=top;spacingLeft=4;spacingRight=4;overflow=hidden;rotatable=0;points=[[0,0.5],[1,0.5]];portConstraint=eastwest;" parent="bHVNC20wXIVItzgnzhsU-11" vertex="1">
          <mxGeometry y="41" width="219" height="26" as="geometry" />
        </mxCell>
        <mxCell id="bHVNC20wXIVItzgnzhsU-7" value="czÄÅci ciaÅa poddana znieczuleniu[1..*]&#xa;" style="text;strokeColor=none;fillColor=none;align=left;verticalAlign=top;spacingLeft=4;spacingRight=4;overflow=hidden;rotatable=0;points=[[0,0.5],[1,0.5]];portConstraint=eastwest;" parent="bHVNC20wXIVItzgnzhsU-11" vertex="1">
          <mxGeometry y="67" width="219" height="23" as="geometry" />
        </mxCell>
        <mxCell id="V0LmtOdD6tVDb5vqFVER-97" value="Pracownik medyczny{abstract}" style="swimlane;fontStyle=1;align=center;verticalAlign=top;childLayout=stackLayout;horizontal=1;startSize=26;horizontalStack=0;resizeParent=1;resizeParentMax=0;resizeLast=0;collapsible=1;marginBottom=0;" parent="1" vertex="1">
          <mxGeometry x="-698.5" y="125.5" width="190" height="90" as="geometry" />
        </mxCell>
        <mxCell id="V0LmtOdD6tVDb5vqFVER-98" value="StopienNaukowy&#xa;{magister,doktor,profesor}" style="text;strokeColor=none;fillColor=none;align=left;verticalAlign=top;spacingLeft=4;spacingRight=4;overflow=hidden;rotatable=0;points=[[0,0.5],[1,0.5]];portConstraint=eastwest;" parent="V0LmtOdD6tVDb5vqFVER-97" vertex="1">
          <mxGeometry y="26" width="190" height="34" as="geometry" />
        </mxCell>
        <mxCell id="V0LmtOdD6tVDb5vqFVER-99" value="" style="line;strokeWidth=1;fillColor=none;align=left;verticalAlign=middle;spacingTop=-1;spacingLeft=3;spacingRight=3;rotatable=0;labelPosition=right;points=[];portConstraint=eastwest;" parent="V0LmtOdD6tVDb5vqFVER-97" vertex="1">
          <mxGeometry y="60" width="190" height="8" as="geometry" />
        </mxCell>
        <mxCell id="V0LmtOdD6tVDb5vqFVER-100" value="przeprowadÅº zabieg() {abstract}" style="text;strokeColor=none;fillColor=none;align=left;verticalAlign=top;spacingLeft=4;spacingRight=4;overflow=hidden;rotatable=0;points=[[0,0.5],[1,0.5]];portConstraint=eastwest;" parent="V0LmtOdD6tVDb5vqFVER-97" vertex="1">
          <mxGeometry y="68" width="190" height="22" as="geometry" />
        </mxCell>
        <mxCell id="bHVNC20wXIVItzgnzhsU-70" value="Recepcjonista" style="swimlane;fontStyle=1;align=center;verticalAlign=top;childLayout=stackLayout;horizontal=1;startSize=26;horizontalStack=0;resizeParent=1;resizeParentMax=0;resizeLast=0;collapsible=1;marginBottom=0;" parent="1" vertex="1">
          <mxGeometry x="-502.5" y="11.5" width="130" height="112" as="geometry" />
        </mxCell>
        <mxCell id="bHVNC20wXIVItzgnzhsU-71" value="login" style="text;strokeColor=none;fillColor=none;align=left;verticalAlign=top;spacingLeft=4;spacingRight=4;overflow=hidden;rotatable=0;points=[[0,0.5],[1,0.5]];portConstraint=eastwest;" parent="bHVNC20wXIVItzgnzhsU-70" vertex="1">
          <mxGeometry y="26" width="130" height="26" as="geometry" />
        </mxCell>
        <mxCell id="bHVNC20wXIVItzgnzhsU-74" value="haslo" style="text;strokeColor=none;fillColor=none;align=left;verticalAlign=top;spacingLeft=4;spacingRight=4;overflow=hidden;rotatable=0;points=[[0,0.5],[1,0.5]];portConstraint=eastwest;" parent="bHVNC20wXIVItzgnzhsU-70" vertex="1">
          <mxGeometry y="52" width="130" height="26" as="geometry" />
        </mxCell>
        <mxCell id="bHVNC20wXIVItzgnzhsU-72" value="" style="line;strokeWidth=1;fillColor=none;align=left;verticalAlign=middle;spacingTop=-1;spacingLeft=3;spacingRight=3;rotatable=0;labelPosition=right;points=[];portConstraint=eastwest;" parent="bHVNC20wXIVItzgnzhsU-70" vertex="1">
          <mxGeometry y="78" width="130" height="8" as="geometry" />
        </mxCell>
        <mxCell id="V0LmtOdD6tVDb5vqFVER-267" value="zarejestruj pacjenta()" style="text;strokeColor=none;fillColor=none;align=left;verticalAlign=top;spacingLeft=4;spacingRight=4;overflow=hidden;rotatable=0;points=[[0,0.5],[1,0.5]];portConstraint=eastwest;" parent="bHVNC20wXIVItzgnzhsU-70" vertex="1">
          <mxGeometry y="86" width="130" height="26" as="geometry" />
        </mxCell>
        <mxCell id="V0LmtOdD6tVDb5vqFVER-140" value="Ordynator" style="swimlane;fontStyle=1;align=center;verticalAlign=top;childLayout=stackLayout;horizontal=1;startSize=26;horizontalStack=0;resizeParent=1;resizeParentMax=0;resizeLast=0;collapsible=1;marginBottom=0;" parent="1" vertex="1">
          <mxGeometry x="-637.5" y="611.5" width="194" height="112" as="geometry" />
        </mxCell>
        <mxCell id="V0LmtOdD6tVDb5vqFVER-141" value="data wyboru" style="text;strokeColor=none;fillColor=none;align=left;verticalAlign=top;spacingLeft=4;spacingRight=4;overflow=hidden;rotatable=0;points=[[0,0.5],[1,0.5]];portConstraint=eastwest;" parent="V0LmtOdD6tVDb5vqFVER-140" vertex="1">
          <mxGeometry y="26" width="194" height="26" as="geometry" />
        </mxCell>
        <mxCell id="V0LmtOdD6tVDb5vqFVER-142" value="" style="line;strokeWidth=1;fillColor=none;align=left;verticalAlign=middle;spacingTop=-1;spacingLeft=3;spacingRight=3;rotatable=0;labelPosition=right;points=[];portConstraint=eastwest;" parent="V0LmtOdD6tVDb5vqFVER-140" vertex="1">
          <mxGeometry y="52" width="194" height="8" as="geometry" />
        </mxCell>
        <mxCell id="V0LmtOdD6tVDb5vqFVER-143" value="przeprowadzZabieg()" style="text;strokeColor=none;fillColor=none;align=left;verticalAlign=top;spacingLeft=4;spacingRight=4;overflow=hidden;rotatable=0;points=[[0,0.5],[1,0.5]];portConstraint=eastwest;" parent="V0LmtOdD6tVDb5vqFVER-140" vertex="1">
          <mxGeometry y="60" width="194" height="26" as="geometry" />
        </mxCell>
        <mxCell id="V0LmtOdD6tVDb5vqFVER-177" value="obchÃ³d()" style="text;strokeColor=none;fillColor=none;align=left;verticalAlign=top;spacingLeft=4;spacingRight=4;overflow=hidden;rotatable=0;points=[[0,0.5],[1,0.5]];portConstraint=eastwest;" parent="V0LmtOdD6tVDb5vqFVER-140" vertex="1">
          <mxGeometry y="86" width="194" height="26" as="geometry" />
        </mxCell>
        <mxCell id="V0LmtOdD6tVDb5vqFVER-134" value="Chirurg" style="swimlane;fontStyle=1;align=center;verticalAlign=top;childLayout=stackLayout;horizontal=1;startSize=26;horizontalStack=0;resizeParent=1;resizeParentMax=0;resizeLast=0;collapsible=1;marginBottom=0;" parent="1" vertex="1">
          <mxGeometry x="-800" y="615" width="132" height="86" as="geometry" />
        </mxCell>
        <mxCell id="V0LmtOdD6tVDb5vqFVER-135" value="dziedzina chirurgi" style="text;strokeColor=none;fillColor=none;align=left;verticalAlign=top;spacingLeft=4;spacingRight=4;overflow=hidden;rotatable=0;points=[[0,0.5],[1,0.5]];portConstraint=eastwest;" parent="V0LmtOdD6tVDb5vqFVER-134" vertex="1">
          <mxGeometry y="26" width="132" height="26" as="geometry" />
        </mxCell>
        <mxCell id="V0LmtOdD6tVDb5vqFVER-136" value="" style="line;strokeWidth=1;fillColor=none;align=left;verticalAlign=middle;spacingTop=-1;spacingLeft=3;spacingRight=3;rotatable=0;labelPosition=right;points=[];portConstraint=eastwest;" parent="V0LmtOdD6tVDb5vqFVER-134" vertex="1">
          <mxGeometry y="52" width="132" height="8" as="geometry" />
        </mxCell>
        <mxCell id="V0LmtOdD6tVDb5vqFVER-137" value="przeprowadzZabieg()" style="text;strokeColor=none;fillColor=none;align=left;verticalAlign=top;spacingLeft=4;spacingRight=4;overflow=hidden;rotatable=0;points=[[0,0.5],[1,0.5]];portConstraint=eastwest;" parent="V0LmtOdD6tVDb5vqFVER-134" vertex="1">
          <mxGeometry y="60" width="132" height="26" as="geometry" />
        </mxCell>
        <mxCell id="V0LmtOdD6tVDb5vqFVER-110" value="Lekarz" style="swimlane;fontStyle=1;align=center;verticalAlign=top;childLayout=stackLayout;horizontal=1;startSize=26;horizontalStack=0;resizeParent=1;resizeParentMax=0;resizeLast=0;collapsible=1;marginBottom=0;" parent="1" vertex="1">
          <mxGeometry x="-698.5" y="326.5" width="194" height="136" as="geometry" />
        </mxCell>
        <mxCell id="V0LmtOdD6tVDb5vqFVER-111" value="specjalizacja" style="text;strokeColor=none;fillColor=none;align=left;verticalAlign=top;spacingLeft=4;spacingRight=4;overflow=hidden;rotatable=0;points=[[0,0.5],[1,0.5]];portConstraint=eastwest;" parent="V0LmtOdD6tVDb5vqFVER-110" vertex="1">
          <mxGeometry y="26" width="194" height="24" as="geometry" />
        </mxCell>
        <mxCell id="V0LmtOdD6tVDb5vqFVER-112" value="" style="line;strokeWidth=1;fillColor=none;align=left;verticalAlign=middle;spacingTop=-1;spacingLeft=3;spacingRight=3;rotatable=0;labelPosition=right;points=[];portConstraint=eastwest;" parent="V0LmtOdD6tVDb5vqFVER-110" vertex="1">
          <mxGeometry y="50" width="194" height="8" as="geometry" />
        </mxCell>
        <mxCell id="V0LmtOdD6tVDb5vqFVER-113" value="przeprowadzZabieg()" style="text;strokeColor=none;fillColor=none;align=left;verticalAlign=top;spacingLeft=4;spacingRight=4;overflow=hidden;rotatable=0;points=[[0,0.5],[1,0.5]];portConstraint=eastwest;" parent="V0LmtOdD6tVDb5vqFVER-110" vertex="1">
          <mxGeometry y="58" width="194" height="26" as="geometry" />
        </mxCell>
        <mxCell id="V0LmtOdD6tVDb5vqFVER-233" value="wypiszPacjenta()" style="text;strokeColor=none;fillColor=none;align=left;verticalAlign=top;spacingLeft=4;spacingRight=4;overflow=hidden;rotatable=0;points=[[0,0.5],[1,0.5]];portConstraint=eastwest;" parent="V0LmtOdD6tVDb5vqFVER-110" vertex="1">
          <mxGeometry y="84" width="194" height="26" as="geometry" />
        </mxCell>
        <mxCell id="bHVNC20wXIVItzgnzhsU-92" value="gÅosowanie()" style="text;strokeColor=none;fillColor=none;align=left;verticalAlign=top;spacingLeft=4;spacingRight=4;overflow=hidden;rotatable=0;points=[[0,0.5],[1,0.5]];portConstraint=eastwest;" parent="V0LmtOdD6tVDb5vqFVER-110" vertex="1">
          <mxGeometry y="110" width="194" height="26" as="geometry" />
        </mxCell>
        <mxCell id="V0LmtOdD6tVDb5vqFVER-42" value="Osoba{abstract}" style="swimlane;fontStyle=1;align=center;verticalAlign=top;childLayout=stackLayout;horizontal=1;startSize=26;horizontalStack=0;resizeParent=1;resizeParentMax=0;resizeLast=0;collapsible=1;marginBottom=0;" parent="1" vertex="1">
          <mxGeometry x="-618.5" y="-580" width="110" height="234" as="geometry">
            <mxRectangle x="-472.5" y="145" width="120" height="26" as="alternateBounds" />
          </mxGeometry>
        </mxCell>
        <mxCell id="V0LmtOdD6tVDb5vqFVER-43" value="Imie" style="text;strokeColor=none;fillColor=none;align=left;verticalAlign=top;spacingLeft=4;spacingRight=4;overflow=hidden;rotatable=0;points=[[0,0.5],[1,0.5]];portConstraint=eastwest;" parent="V0LmtOdD6tVDb5vqFVER-42" vertex="1">
          <mxGeometry y="26" width="110" height="26" as="geometry" />
        </mxCell>
        <mxCell id="V0LmtOdD6tVDb5vqFVER-46" value="Nazwisko" style="text;strokeColor=none;fillColor=none;align=left;verticalAlign=top;spacingLeft=4;spacingRight=4;overflow=hidden;rotatable=0;points=[[0,0.5],[1,0.5]];portConstraint=eastwest;" parent="V0LmtOdD6tVDb5vqFVER-42" vertex="1">
          <mxGeometry y="52" width="110" height="26" as="geometry" />
        </mxCell>
        <mxCell id="V0LmtOdD6tVDb5vqFVER-47" value="Pesel" style="text;strokeColor=none;fillColor=none;align=left;verticalAlign=top;spacingLeft=4;spacingRight=4;overflow=hidden;rotatable=0;points=[[0,0.5],[1,0.5]];portConstraint=eastwest;" parent="V0LmtOdD6tVDb5vqFVER-42" vertex="1">
          <mxGeometry y="78" width="110" height="26" as="geometry" />
        </mxCell>
        <mxCell id="V0LmtOdD6tVDb5vqFVER-48" value="adress" style="text;strokeColor=none;fillColor=none;align=left;verticalAlign=top;spacingLeft=4;spacingRight=4;overflow=hidden;rotatable=0;points=[[0,0.5],[1,0.5]];portConstraint=eastwest;" parent="V0LmtOdD6tVDb5vqFVER-42" vertex="1">
          <mxGeometry y="104" width="110" height="26" as="geometry" />
        </mxCell>
        <mxCell id="V0LmtOdD6tVDb5vqFVER-49" value="telefon" style="text;strokeColor=none;fillColor=none;align=left;verticalAlign=top;spacingLeft=4;spacingRight=4;overflow=hidden;rotatable=0;points=[[0,0.5],[1,0.5]];portConstraint=eastwest;" parent="V0LmtOdD6tVDb5vqFVER-42" vertex="1">
          <mxGeometry y="130" width="110" height="26" as="geometry" />
        </mxCell>
        <mxCell id="8IMbzi-j8LDuRa3O1iAD-1" value="/wiek" style="text;strokeColor=none;fillColor=none;align=left;verticalAlign=top;spacingLeft=4;spacingRight=4;overflow=hidden;rotatable=0;points=[[0,0.5],[1,0.5]];portConstraint=eastwest;" parent="V0LmtOdD6tVDb5vqFVER-42" vertex="1">
          <mxGeometry y="156" width="110" height="26" as="geometry" />
        </mxCell>
        <mxCell id="V0LmtOdD6tVDb5vqFVER-251" value="/pÅeÄ" style="text;strokeColor=none;fillColor=none;align=left;verticalAlign=top;spacingLeft=4;spacingRight=4;overflow=hidden;rotatable=0;points=[[0,0.5],[1,0.5]];portConstraint=eastwest;" parent="V0LmtOdD6tVDb5vqFVER-42" vertex="1">
          <mxGeometry y="182" width="110" height="26" as="geometry" />
        </mxCell>
        <mxCell id="V0LmtOdD6tVDb5vqFVER-50" value="e-mail" style="text;strokeColor=none;fillColor=none;align=left;verticalAlign=top;spacingLeft=4;spacingRight=4;overflow=hidden;rotatable=0;points=[[0,0.5],[1,0.5]];portConstraint=eastwest;" parent="V0LmtOdD6tVDb5vqFVER-42" vertex="1">
          <mxGeometry y="208" width="110" height="26" as="geometry" />
        </mxCell>
        <mxCell id="V0LmtOdD6tVDb5vqFVER-15" value="OddziaÅ" style="swimlane;fontStyle=1;align=center;verticalAlign=top;childLayout=stackLayout;horizontal=1;startSize=26;horizontalStack=0;resizeParent=1;resizeParentMax=0;resizeLast=0;collapsible=1;marginBottom=0;" parent="1" vertex="1">
          <mxGeometry x="484" y="316.5" width="160" height="78" as="geometry">
            <mxRectangle x="422.5" y="756" width="80" height="26" as="alternateBounds" />
          </mxGeometry>
        </mxCell>
        <mxCell id="V0LmtOdD6tVDb5vqFVER-139" value="Rodzaj" style="text;strokeColor=none;fillColor=none;align=left;verticalAlign=top;spacingLeft=4;spacingRight=4;overflow=hidden;rotatable=0;points=[[0,0.5],[1,0.5]];portConstraint=eastwest;" parent="V0LmtOdD6tVDb5vqFVER-15" vertex="1">
          <mxGeometry y="26" width="160" height="26" as="geometry" />
        </mxCell>
        <mxCell id="V0LmtOdD6tVDb5vqFVER-16" value="NrPietra" style="text;strokeColor=none;fillColor=none;align=left;verticalAlign=top;spacingLeft=4;spacingRight=4;overflow=hidden;rotatable=0;points=[[0,0.5],[1,0.5]];portConstraint=eastwest;" parent="V0LmtOdD6tVDb5vqFVER-15" vertex="1">
          <mxGeometry y="52" width="160" height="26" as="geometry" />
        </mxCell>
        <mxCell id="V0LmtOdD6tVDb5vqFVER-1" value="Szpital" style="swimlane;fontStyle=1;align=center;verticalAlign=top;childLayout=stackLayout;horizontal=1;startSize=26;horizontalStack=0;resizeParent=1;resizeParentMax=0;resizeLast=0;collapsible=1;marginBottom=0;" parent="1" vertex="1">
          <mxGeometry x="484" y="616" width="160" height="104" as="geometry" />
        </mxCell>
        <mxCell id="V0LmtOdD6tVDb5vqFVER-2" value="Nazwa" style="text;strokeColor=none;fillColor=none;align=left;verticalAlign=top;spacingLeft=4;spacingRight=4;overflow=hidden;rotatable=0;points=[[0,0.5],[1,0.5]];portConstraint=eastwest;" parent="V0LmtOdD6tVDb5vqFVER-1" vertex="1">
          <mxGeometry y="26" width="160" height="26" as="geometry" />
        </mxCell>
        <mxCell id="V0LmtOdD6tVDb5vqFVER-236" value="Adres" style="text;strokeColor=none;fillColor=none;align=left;verticalAlign=top;spacingLeft=4;spacingRight=4;overflow=hidden;rotatable=0;points=[[0,0.5],[1,0.5]];portConstraint=eastwest;" parent="V0LmtOdD6tVDb5vqFVER-1" vertex="1">
          <mxGeometry y="52" width="160" height="26" as="geometry" />
        </mxCell>
        <mxCell id="V0LmtOdD6tVDb5vqFVER-237" value="Telefon" style="text;strokeColor=none;fillColor=none;align=left;verticalAlign=top;spacingLeft=4;spacingRight=4;overflow=hidden;rotatable=0;points=[[0,0.5],[1,0.5]];portConstraint=eastwest;" parent="V0LmtOdD6tVDb5vqFVER-1" vertex="1">
          <mxGeometry y="78" width="160" height="26" as="geometry" />
        </mxCell>
        <mxCell id="YwFuL6sDTb0NZOChiDxO-6" value="Rodzaj" style="swimlane;fontStyle=1;align=center;verticalAlign=top;childLayout=stackLayout;horizontal=1;startSize=26;horizontalStack=0;resizeParent=1;resizeParentMax=0;resizeLast=0;collapsible=1;marginBottom=0;" parent="1" vertex="1">
          <mxGeometry x="340.5" y="-60.5" width="135" height="78" as="geometry" />
        </mxCell>
        <mxCell id="YwFuL6sDTb0NZOChiDxO-7" value="nazwa" style="text;strokeColor=none;fillColor=none;align=left;verticalAlign=top;spacingLeft=4;spacingRight=4;overflow=hidden;rotatable=0;points=[[0,0.5],[1,0.5]];portConstraint=eastwest;" parent="YwFuL6sDTb0NZOChiDxO-6" vertex="1">
          <mxGeometry y="26" width="135" height="26" as="geometry" />
        </mxCell>
        <mxCell id="YwFuL6sDTb0NZOChiDxO-8" value="cena" style="text;strokeColor=none;fillColor=none;align=left;verticalAlign=top;spacingLeft=4;spacingRight=4;overflow=hidden;rotatable=0;points=[[0,0.5],[1,0.5]];portConstraint=eastwest;" parent="YwFuL6sDTb0NZOChiDxO-6" vertex="1">
          <mxGeometry y="52" width="135" height="26" as="geometry" />
        </mxCell>
        <mxCell id="ErRzsbdJsTQGQdsCB-qW-5" value="" style="group" vertex="1" connectable="0" parent="1">
          <mxGeometry x="-564.5" y="-221.5" as="geometry" />
        </mxCell>
        <mxCell id="V0LmtOdD6tVDb5vqFVER-179" value="" style="endArrow=block;endSize=16;endFill=0;html=1;" parent="ErRzsbdJsTQGQdsCB-qW-5" source="V0LmtOdD6tVDb5vqFVER-5" target="V0LmtOdD6tVDb5vqFVER-42" edge="1">
          <mxGeometry x="-0.375" y="80" width="160" relative="1" as="geometry">
            <mxPoint x="116" y="-124" as="sourcePoint" />
            <mxPoint x="276" y="-124" as="targetPoint" />
            <mxPoint as="offset" />
            <Array as="points">
              <mxPoint />
            </Array>
          </mxGeometry>
        </mxCell>
        <mxCell id="bHVNC20wXIVItzgnzhsU-22" value="" style="endArrow=block;html=1;exitX=0.75;exitY=0;exitDx=0;exitDy=0;endFill=0;endSize=16;" parent="ErRzsbdJsTQGQdsCB-qW-5" source="V0LmtOdD6tVDb5vqFVER-253" target="V0LmtOdD6tVDb5vqFVER-42" edge="1">
          <mxGeometry width="50" height="50" relative="1" as="geometry">
            <mxPoint x="-49" y="198" as="sourcePoint" />
            <mxPoint x="1" y="-2" as="targetPoint" />
          </mxGeometry>
        </mxCell>
        <mxCell id="YwFuL6sDTb0NZOChiDxO-1" value="Pobyt" style="swimlane;fontStyle=1;align=center;verticalAlign=top;childLayout=stackLayout;horizontal=1;startSize=26;horizontalStack=0;resizeParent=1;resizeParentMax=0;resizeLast=0;collapsible=1;marginBottom=0;" parent="1" vertex="1">
          <mxGeometry x="293.5" y="-363.5" width="135" height="78" as="geometry" />
        </mxCell>
        <mxCell id="YwFuL6sDTb0NZOChiDxO-2" value="od" style="text;strokeColor=none;fillColor=none;align=left;verticalAlign=top;spacingLeft=4;spacingRight=4;overflow=hidden;rotatable=0;points=[[0,0.5],[1,0.5]];portConstraint=eastwest;" parent="YwFuL6sDTb0NZOChiDxO-1" vertex="1">
          <mxGeometry y="26" width="135" height="26" as="geometry" />
        </mxCell>
        <mxCell id="YwFuL6sDTb0NZOChiDxO-3" value="do" style="text;strokeColor=none;fillColor=none;align=left;verticalAlign=top;spacingLeft=4;spacingRight=4;overflow=hidden;rotatable=0;points=[[0,0.5],[1,0.5]];portConstraint=eastwest;" parent="YwFuL6sDTb0NZOChiDxO-1" vertex="1">
          <mxGeometry y="52" width="135" height="26" as="geometry" />
        </mxCell>
        <mxCell id="V0LmtOdD6tVDb5vqFVER-78" value="PielÄgniarka" style="swimlane;fontStyle=1;align=center;verticalAlign=top;childLayout=stackLayout;horizontal=1;startSize=26;horizontalStack=0;resizeParent=1;resizeParentMax=0;resizeLast=0;collapsible=1;marginBottom=0;" parent="1" vertex="1">
          <mxGeometry x="-443.5" y="316.5" width="130" height="86" as="geometry" />
        </mxCell>
        <mxCell id="V0LmtOdD6tVDb5vqFVER-84" value="certyfikaty[0..*]" style="text;strokeColor=none;fillColor=none;align=left;verticalAlign=top;spacingLeft=4;spacingRight=4;overflow=hidden;rotatable=0;points=[[0,0.5],[1,0.5]];portConstraint=eastwest;" parent="V0LmtOdD6tVDb5vqFVER-78" vertex="1">
          <mxGeometry y="26" width="130" height="26" as="geometry" />
        </mxCell>
        <mxCell id="V0LmtOdD6tVDb5vqFVER-80" value="" style="line;strokeWidth=1;fillColor=none;align=left;verticalAlign=middle;spacingTop=-1;spacingLeft=3;spacingRight=3;rotatable=0;labelPosition=right;points=[];portConstraint=eastwest;" parent="V0LmtOdD6tVDb5vqFVER-78" vertex="1">
          <mxGeometry y="52" width="130" height="8" as="geometry" />
        </mxCell>
        <mxCell id="V0LmtOdD6tVDb5vqFVER-81" value="przeprowadzZabieg()" style="text;strokeColor=none;fillColor=none;align=left;verticalAlign=top;spacingLeft=4;spacingRight=4;overflow=hidden;rotatable=0;points=[[0,0.5],[1,0.5]];portConstraint=eastwest;" parent="V0LmtOdD6tVDb5vqFVER-78" vertex="1">
          <mxGeometry y="60" width="130" height="26" as="geometry" />
        </mxCell>
      </root>
    </mxGraphModel>
  </diagram>
  <diagram id="FM_yI3zF8epU7L87QcL2" name="actor">
    <mxGraphModel dx="942" dy="592" grid="1" gridSize="10" guides="1" tooltips="1" connect="1" arrows="1" fold="1" page="1" pageScale="1" pageWidth="827" pageHeight="1169" math="0" shadow="0">
      <root>
        <mxCell id="-R-MOfN5qlVxSGHxa36g-0" />
        <mxCell id="-R-MOfN5qlVxSGHxa36g-1" parent="-R-MOfN5qlVxSGHxa36g-0" />
        <mxCell id="hI1Z9JQXfmoYDXzhNV6h-1" value="" style="edgeStyle=orthogonalEdgeStyle;rounded=0;orthogonalLoop=1;jettySize=auto;html=1;" parent="-R-MOfN5qlVxSGHxa36g-1" source="-R-MOfN5qlVxSGHxa36g-2" target="hI1Z9JQXfmoYDXzhNV6h-0" edge="1">
          <mxGeometry relative="1" as="geometry" />
        </mxCell>
        <mxCell id="hI1Z9JQXfmoYDXzhNV6h-4" value="" style="edgeStyle=orthogonalEdgeStyle;rounded=0;orthogonalLoop=1;jettySize=auto;html=1;" parent="-R-MOfN5qlVxSGHxa36g-1" source="-R-MOfN5qlVxSGHxa36g-2" target="hI1Z9JQXfmoYDXzhNV6h-0" edge="1">
          <mxGeometry relative="1" as="geometry" />
        </mxCell>
        <mxCell id="hI1Z9JQXfmoYDXzhNV6h-6" value="" style="edgeStyle=orthogonalEdgeStyle;rounded=0;orthogonalLoop=1;jettySize=auto;html=1;" parent="-R-MOfN5qlVxSGHxa36g-1" source="-R-MOfN5qlVxSGHxa36g-2" target="hI1Z9JQXfmoYDXzhNV6h-5" edge="1">
          <mxGeometry relative="1" as="geometry">
            <Array as="points">
              <mxPoint x="65" y="210" />
            </Array>
          </mxGeometry>
        </mxCell>
        <mxCell id="-R-MOfN5qlVxSGHxa36g-2" value="Osoba" style="shape=umlActor;verticalLabelPosition=bottom;labelBackgroundColor=#ffffff;verticalAlign=top;html=1;" parent="-R-MOfN5qlVxSGHxa36g-1" vertex="1">
          <mxGeometry x="50" y="40" width="30" height="60" as="geometry" />
        </mxCell>
        <mxCell id="hI1Z9JQXfmoYDXzhNV6h-5" value="Pacjent" style="shape=umlActor;verticalLabelPosition=bottom;labelBackgroundColor=#ffffff;verticalAlign=top;html=1;" parent="-R-MOfN5qlVxSGHxa36g-1" vertex="1">
          <mxGeometry x="160" y="185" width="30" height="60" as="geometry" />
        </mxCell>
        <mxCell id="hI1Z9JQXfmoYDXzhNV6h-3" value="" style="edgeStyle=orthogonalEdgeStyle;rounded=0;orthogonalLoop=1;jettySize=auto;html=1;" parent="-R-MOfN5qlVxSGHxa36g-1" source="hI1Z9JQXfmoYDXzhNV6h-0" target="hI1Z9JQXfmoYDXzhNV6h-2" edge="1">
          <mxGeometry relative="1" as="geometry" />
        </mxCell>
        <mxCell id="hI1Z9JQXfmoYDXzhNV6h-8" value="" style="edgeStyle=orthogonalEdgeStyle;rounded=0;orthogonalLoop=1;jettySize=auto;html=1;" parent="-R-MOfN5qlVxSGHxa36g-1" source="hI1Z9JQXfmoYDXzhNV6h-0" target="hI1Z9JQXfmoYDXzhNV6h-7" edge="1">
          <mxGeometry relative="1" as="geometry">
            <Array as="points">
              <mxPoint x="65" y="450" />
            </Array>
          </mxGeometry>
        </mxCell>
        <mxCell id="hI1Z9JQXfmoYDXzhNV6h-0" value="Pracownik" style="shape=umlActor;verticalLabelPosition=bottom;labelBackgroundColor=#ffffff;verticalAlign=top;html=1;" parent="-R-MOfN5qlVxSGHxa36g-1" vertex="1">
          <mxGeometry x="50" y="290" width="30" height="60" as="geometry" />
        </mxCell>
        <mxCell id="hI1Z9JQXfmoYDXzhNV6h-7" value="Recepcjonista" style="shape=umlActor;verticalLabelPosition=bottom;labelBackgroundColor=#ffffff;verticalAlign=top;html=1;" parent="-R-MOfN5qlVxSGHxa36g-1" vertex="1">
          <mxGeometry x="160" y="420" width="30" height="60" as="geometry" />
        </mxCell>
        <mxCell id="azWlfcGg9LfdyFCjQurN-1" value="" style="edgeStyle=orthogonalEdgeStyle;rounded=0;orthogonalLoop=1;jettySize=auto;html=1;" parent="-R-MOfN5qlVxSGHxa36g-1" source="hI1Z9JQXfmoYDXzhNV6h-2" target="azWlfcGg9LfdyFCjQurN-0" edge="1">
          <mxGeometry relative="1" as="geometry" />
        </mxCell>
        <mxCell id="azWlfcGg9LfdyFCjQurN-3" value="" style="edgeStyle=orthogonalEdgeStyle;rounded=0;orthogonalLoop=1;jettySize=auto;html=1;" parent="-R-MOfN5qlVxSGHxa36g-1" source="hI1Z9JQXfmoYDXzhNV6h-2" target="azWlfcGg9LfdyFCjQurN-2" edge="1">
          <mxGeometry relative="1" as="geometry">
            <Array as="points">
              <mxPoint x="65" y="630" />
            </Array>
          </mxGeometry>
        </mxCell>
        <mxCell id="hI1Z9JQXfmoYDXzhNV6h-2" value="Pracownik medyczny" style="shape=umlActor;verticalLabelPosition=bottom;labelBackgroundColor=#ffffff;verticalAlign=top;html=1;" parent="-R-MOfN5qlVxSGHxa36g-1" vertex="1">
          <mxGeometry x="50" y="515" width="30" height="60" as="geometry" />
        </mxCell>
        <mxCell id="azWlfcGg9LfdyFCjQurN-2" value="PielÄgniarka" style="shape=umlActor;verticalLabelPosition=bottom;labelBackgroundColor=#ffffff;verticalAlign=top;html=1;" parent="-R-MOfN5qlVxSGHxa36g-1" vertex="1">
          <mxGeometry x="160" y="600" width="30" height="60" as="geometry" />
        </mxCell>
        <mxCell id="azWlfcGg9LfdyFCjQurN-5" value="" style="edgeStyle=orthogonalEdgeStyle;rounded=0;orthogonalLoop=1;jettySize=auto;html=1;" parent="-R-MOfN5qlVxSGHxa36g-1" source="azWlfcGg9LfdyFCjQurN-0" target="azWlfcGg9LfdyFCjQurN-4" edge="1">
          <mxGeometry relative="1" as="geometry" />
        </mxCell>
        <mxCell id="azWlfcGg9LfdyFCjQurN-7" value="" style="edgeStyle=orthogonalEdgeStyle;rounded=0;orthogonalLoop=1;jettySize=auto;html=1;" parent="-R-MOfN5qlVxSGHxa36g-1" source="azWlfcGg9LfdyFCjQurN-0" target="azWlfcGg9LfdyFCjQurN-6" edge="1">
          <mxGeometry relative="1" as="geometry">
            <Array as="points">
              <mxPoint x="65" y="920" />
            </Array>
          </mxGeometry>
        </mxCell>
        <mxCell id="azWlfcGg9LfdyFCjQurN-0" value="Lekarz" style="shape=umlActor;verticalLabelPosition=bottom;labelBackgroundColor=#ffffff;verticalAlign=top;html=1;" parent="-R-MOfN5qlVxSGHxa36g-1" vertex="1">
          <mxGeometry x="50" y="760" width="30" height="60" as="geometry" />
        </mxCell>
        <mxCell id="azWlfcGg9LfdyFCjQurN-6" value="Chirurg" style="shape=umlActor;verticalLabelPosition=bottom;labelBackgroundColor=#ffffff;verticalAlign=top;html=1;" parent="-R-MOfN5qlVxSGHxa36g-1" vertex="1">
          <mxGeometry x="160" y="890" width="30" height="60" as="geometry" />
        </mxCell>
        <mxCell id="azWlfcGg9LfdyFCjQurN-4" value="Ordynator" style="shape=umlActor;verticalLabelPosition=bottom;labelBackgroundColor=#ffffff;verticalAlign=top;html=1;" parent="-R-MOfN5qlVxSGHxa36g-1" vertex="1">
          <mxGeometry x="50" y="1010" width="30" height="60" as="geometry" />
        </mxCell>
        <mxCell id="azWlfcGg9LfdyFCjQurN-14" value="Wypisz siÄ na Å¼Ädanie ze szpitala" style="ellipse;whiteSpace=wrap;html=1;" parent="-R-MOfN5qlVxSGHxa36g-1" vertex="1">
          <mxGeometry x="300" y="180" width="140" height="70" as="geometry" />
        </mxCell>
        <mxCell id="azWlfcGg9LfdyFCjQurN-15" value="Wylicz miesiÄczny dochÃ³d" style="ellipse;whiteSpace=wrap;html=1;" parent="-R-MOfN5qlVxSGHxa36g-1" vertex="1">
          <mxGeometry x="300" y="285" width="140" height="70" as="geometry" />
        </mxCell>
        <mxCell id="azWlfcGg9LfdyFCjQurN-16" value="Zarejestruj pacjenta" style="ellipse;whiteSpace=wrap;html=1;" parent="-R-MOfN5qlVxSGHxa36g-1" vertex="1">
          <mxGeometry x="300" y="415" width="140" height="70" as="geometry" />
        </mxCell>
        <mxCell id="azWlfcGg9LfdyFCjQurN-17" value="GÅosuj na nowego ordynatora" style="ellipse;whiteSpace=wrap;html=1;" parent="-R-MOfN5qlVxSGHxa36g-1" vertex="1">
          <mxGeometry x="470" y="670" width="140" height="70" as="geometry" />
        </mxCell>
        <mxCell id="azWlfcGg9LfdyFCjQurN-18" value="Wypisz pacjenta" style="ellipse;whiteSpace=wrap;html=1;" parent="-R-MOfN5qlVxSGHxa36g-1" vertex="1">
          <mxGeometry x="500" y="840" width="140" height="70" as="geometry" />
        </mxCell>
        <mxCell id="azWlfcGg9LfdyFCjQurN-20" value="PrzeprowadÅº zabiegi , jeÅli jest normalny zabieg" style="ellipse;whiteSpace=wrap;html=1;" parent="-R-MOfN5qlVxSGHxa36g-1" vertex="1">
          <mxGeometry x="343" y="890" width="140" height="70" as="geometry" />
        </mxCell>
        <mxCell id="azWlfcGg9LfdyFCjQurN-22" value="PrzeprowadÅº zabiegi , jeÅli jest inwazyjny zabieg" style="ellipse;whiteSpace=wrap;html=1;" parent="-R-MOfN5qlVxSGHxa36g-1" vertex="1">
          <mxGeometry x="360" y="760" width="140" height="70" as="geometry" />
        </mxCell>
        <mxCell id="azWlfcGg9LfdyFCjQurN-24" value="PrzeprowadÅº zabiegi , jeÅli jest maÅo inwazyjny zabieg" style="ellipse;whiteSpace=wrap;html=1;" parent="-R-MOfN5qlVxSGHxa36g-1" vertex="1">
          <mxGeometry x="318" y="590" width="140" height="80" as="geometry" />
        </mxCell>
        <mxCell id="azWlfcGg9LfdyFCjQurN-26" value="" style="endArrow=none;html=1;exitX=0.5;exitY=0.5;exitDx=0;exitDy=0;exitPerimeter=0;" parent="-R-MOfN5qlVxSGHxa36g-1" source="hI1Z9JQXfmoYDXzhNV6h-7" target="azWlfcGg9LfdyFCjQurN-16" edge="1">
          <mxGeometry width="50" height="50" relative="1" as="geometry">
            <mxPoint x="500" y="675" as="sourcePoint" />
            <mxPoint x="550" y="625" as="targetPoint" />
          </mxGeometry>
        </mxCell>
        <mxCell id="azWlfcGg9LfdyFCjQurN-27" value="" style="endArrow=none;html=1;exitX=0.5;exitY=0.5;exitDx=0;exitDy=0;exitPerimeter=0;" parent="-R-MOfN5qlVxSGHxa36g-1" source="azWlfcGg9LfdyFCjQurN-0" target="azWlfcGg9LfdyFCjQurN-18" edge="1">
          <mxGeometry width="50" height="50" relative="1" as="geometry">
            <mxPoint x="510" y="625" as="sourcePoint" />
            <mxPoint x="560" y="575" as="targetPoint" />
          </mxGeometry>
        </mxCell>
        <mxCell id="azWlfcGg9LfdyFCjQurN-28" value="" style="endArrow=none;html=1;exitX=0.5;exitY=0.5;exitDx=0;exitDy=0;exitPerimeter=0;" parent="-R-MOfN5qlVxSGHxa36g-1" source="azWlfcGg9LfdyFCjQurN-0" target="azWlfcGg9LfdyFCjQurN-17" edge="1">
          <mxGeometry width="50" height="50" relative="1" as="geometry">
            <mxPoint x="520" y="635" as="sourcePoint" />
            <mxPoint x="570" y="590" as="targetPoint" />
          </mxGeometry>
        </mxCell>
        <mxCell id="azWlfcGg9LfdyFCjQurN-29" value="" style="endArrow=none;html=1;exitX=0.5;exitY=0.5;exitDx=0;exitDy=0;exitPerimeter=0;" parent="-R-MOfN5qlVxSGHxa36g-1" source="azWlfcGg9LfdyFCjQurN-0" target="azWlfcGg9LfdyFCjQurN-22" edge="1">
          <mxGeometry width="50" height="50" relative="1" as="geometry">
            <mxPoint x="530" y="645" as="sourcePoint" />
            <mxPoint x="580" y="595" as="targetPoint" />
          </mxGeometry>
        </mxCell>
        <mxCell id="azWlfcGg9LfdyFCjQurN-30" value="" style="endArrow=none;html=1;exitX=0.5;exitY=0.5;exitDx=0;exitDy=0;exitPerimeter=0;" parent="-R-MOfN5qlVxSGHxa36g-1" source="azWlfcGg9LfdyFCjQurN-2" target="azWlfcGg9LfdyFCjQurN-24" edge="1">
          <mxGeometry width="50" height="50" relative="1" as="geometry">
            <mxPoint x="510" y="625" as="sourcePoint" />
            <mxPoint x="560" y="575" as="targetPoint" />
          </mxGeometry>
        </mxCell>
        <mxCell id="azWlfcGg9LfdyFCjQurN-31" value="" style="endArrow=none;html=1;exitX=0.5;exitY=0.5;exitDx=0;exitDy=0;exitPerimeter=0;" parent="-R-MOfN5qlVxSGHxa36g-1" source="azWlfcGg9LfdyFCjQurN-6" target="azWlfcGg9LfdyFCjQurN-20" edge="1">
          <mxGeometry width="50" height="50" relative="1" as="geometry">
            <mxPoint x="240" y="1010" as="sourcePoint" />
            <mxPoint x="290" y="960" as="targetPoint" />
          </mxGeometry>
        </mxCell>
        <mxCell id="azWlfcGg9LfdyFCjQurN-32" value="PrzeprowadÅº zabiegi , jeÅli jest niebezpieczny zabieg" style="ellipse;whiteSpace=wrap;html=1;" parent="-R-MOfN5qlVxSGHxa36g-1" vertex="1">
          <mxGeometry x="340" y="1010" width="140" height="70" as="geometry" />
        </mxCell>
        <mxCell id="azWlfcGg9LfdyFCjQurN-33" value="" style="endArrow=none;html=1;exitX=0.5;exitY=0.5;exitDx=0;exitDy=0;exitPerimeter=0;" parent="-R-MOfN5qlVxSGHxa36g-1" source="azWlfcGg9LfdyFCjQurN-4" target="azWlfcGg9LfdyFCjQurN-32" edge="1">
          <mxGeometry width="50" height="50" relative="1" as="geometry">
            <mxPoint x="122.66666666666674" y="1039.6666666666667" as="sourcePoint" />
            <mxPoint x="237.5" y="1080" as="targetPoint" />
            <Array as="points">
              <mxPoint x="250" y="1040" />
            </Array>
          </mxGeometry>
        </mxCell>
        <mxCell id="azWlfcGg9LfdyFCjQurN-35" value="" style="endArrow=none;html=1;entryX=0.5;entryY=0.5;entryDx=0;entryDy=0;entryPerimeter=0;" parent="-R-MOfN5qlVxSGHxa36g-1" source="azWlfcGg9LfdyFCjQurN-44" target="azWlfcGg9LfdyFCjQurN-39" edge="1">
          <mxGeometry width="50" height="50" relative="1" as="geometry">
            <mxPoint x="522.5" y="635" as="sourcePoint" />
            <mxPoint x="572.5" y="585" as="targetPoint" />
          </mxGeometry>
        </mxCell>
        <mxCell id="azWlfcGg9LfdyFCjQurN-36" value="" style="endArrow=none;html=1;exitX=0.5;exitY=0.5;exitDx=0;exitDy=0;exitPerimeter=0;" parent="-R-MOfN5qlVxSGHxa36g-1" source="hI1Z9JQXfmoYDXzhNV6h-0" target="azWlfcGg9LfdyFCjQurN-15" edge="1">
          <mxGeometry width="50" height="50" relative="1" as="geometry">
            <mxPoint x="100" y="355" as="sourcePoint" />
            <mxPoint x="150" y="305" as="targetPoint" />
          </mxGeometry>
        </mxCell>
        <mxCell id="azWlfcGg9LfdyFCjQurN-37" value="" style="endArrow=none;html=1;exitX=0.5;exitY=0.5;exitDx=0;exitDy=0;exitPerimeter=0;" parent="-R-MOfN5qlVxSGHxa36g-1" source="hI1Z9JQXfmoYDXzhNV6h-5" target="azWlfcGg9LfdyFCjQurN-14" edge="1">
          <mxGeometry width="50" height="50" relative="1" as="geometry">
            <mxPoint x="215" y="220" as="sourcePoint" />
            <mxPoint x="265" y="170" as="targetPoint" />
          </mxGeometry>
        </mxCell>
        <mxCell id="azWlfcGg9LfdyFCjQurN-38" value="System czasu &lt;br&gt;co 12 godzin" style="shape=umlActor;verticalLabelPosition=bottom;labelBackgroundColor=#ffffff;verticalAlign=top;html=1;" parent="-R-MOfN5qlVxSGHxa36g-1" vertex="1">
          <mxGeometry x="742.5" y="1035" width="30" height="65" as="geometry" />
        </mxCell>
        <mxCell id="azWlfcGg9LfdyFCjQurN-39" value="System czasu &lt;br&gt;co 6 lat" style="shape=umlActor;verticalLabelPosition=bottom;labelBackgroundColor=#ffffff;verticalAlign=top;html=1;" parent="-R-MOfN5qlVxSGHxa36g-1" vertex="1">
          <mxGeometry x="727.5" y="485" width="30" height="60" as="geometry" />
        </mxCell>
        <mxCell id="azWlfcGg9LfdyFCjQurN-44" value="Rozpocznij wybory na nowego ordynatora" style="ellipse;whiteSpace=wrap;html=1;" parent="-R-MOfN5qlVxSGHxa36g-1" vertex="1">
          <mxGeometry x="512.5" y="485" width="140" height="70" as="geometry" />
        </mxCell>
        <mxCell id="azWlfcGg9LfdyFCjQurN-45" value="" style="endArrow=none;html=1;entryX=0.5;entryY=0.5;entryDx=0;entryDy=0;entryPerimeter=0;" parent="-R-MOfN5qlVxSGHxa36g-1" source="azWlfcGg9LfdyFCjQurN-46" target="azWlfcGg9LfdyFCjQurN-38" edge="1">
          <mxGeometry width="50" height="50" relative="1" as="geometry">
            <mxPoint x="467.5" y="1175" as="sourcePoint" />
            <mxPoint x="717.6428571428571" y="1059.857142857143" as="targetPoint" />
          </mxGeometry>
        </mxCell>
        <mxCell id="azWlfcGg9LfdyFCjQurN-46" value="Przypomnij ordynatorowi o obchodzie" style="ellipse;whiteSpace=wrap;html=1;" parent="-R-MOfN5qlVxSGHxa36g-1" vertex="1">
          <mxGeometry x="507.5" y="1035" width="140" height="70" as="geometry" />
        </mxCell>
        <mxCell id="azWlfcGg9LfdyFCjQurN-56" value="" style="endArrow=none;html=1;shadow=0;comic=0;jumpSize=0;jumpStyle=arc;startSize=0;rounded=0;exitX=0.5;exitY=0;exitDx=0;exitDy=0;exitPerimeter=0;entryX=0.791;entryY=0.153;entryDx=0;entryDy=0;entryPerimeter=0;" parent="-R-MOfN5qlVxSGHxa36g-1" source="azWlfcGg9LfdyFCjQurN-38" target="azWlfcGg9LfdyFCjQurN-38" edge="1">
          <mxGeometry width="50" height="50" relative="1" as="geometry">
            <mxPoint x="777.5" y="1040" as="sourcePoint" />
            <mxPoint x="787.5" y="1050" as="targetPoint" />
            <Array as="points">
              <mxPoint x="757.5" y="1045" />
            </Array>
          </mxGeometry>
        </mxCell>
        <mxCell id="azWlfcGg9LfdyFCjQurN-57" value="" style="endArrow=none;html=1;shadow=0;comic=0;jumpSize=0;jumpStyle=arc;startSize=0;rounded=0;exitX=0.5;exitY=0;exitDx=0;exitDy=0;exitPerimeter=0;entryX=0.758;entryY=0.175;entryDx=0;entryDy=0;entryPerimeter=0;" parent="-R-MOfN5qlVxSGHxa36g-1" source="azWlfcGg9LfdyFCjQurN-39" target="azWlfcGg9LfdyFCjQurN-39" edge="1">
          <mxGeometry width="50" height="50" relative="1" as="geometry">
            <mxPoint x="738.0555555555554" y="484.8888888888889" as="sourcePoint" />
            <mxPoint x="747" y="495" as="targetPoint" />
            <Array as="points">
              <mxPoint x="742.5" y="495" />
            </Array>
          </mxGeometry>
        </mxCell>
        <mxCell id="azWlfcGg9LfdyFCjQurN-58" value="Rozpocznij obchÃ³d" style="ellipse;whiteSpace=wrap;html=1;" parent="-R-MOfN5qlVxSGHxa36g-1" vertex="1">
          <mxGeometry x="220" y="1080" width="140" height="70" as="geometry" />
        </mxCell>
        <mxCell id="azWlfcGg9LfdyFCjQurN-59" value="" style="endArrow=none;html=1;exitX=0.5;exitY=0.5;exitDx=0;exitDy=0;exitPerimeter=0;" parent="-R-MOfN5qlVxSGHxa36g-1" source="azWlfcGg9LfdyFCjQurN-4" target="azWlfcGg9LfdyFCjQurN-58" edge="1">
          <mxGeometry width="50" height="50" relative="1" as="geometry">
            <mxPoint x="92.5" y="1110" as="sourcePoint" />
            <mxPoint x="265" y="1150" as="targetPoint" />
          </mxGeometry>
        </mxCell>
        <mxCell id="azWlfcGg9LfdyFCjQurN-61" value="UD Szpital" style="shape=umlFrame;whiteSpace=wrap;html=1;width=100;height=25;noLabel=0;connectable=0;container=0;" parent="-R-MOfN5qlVxSGHxa36g-1" vertex="1">
          <mxGeometry x="13" y="10" width="797" height="1150" as="geometry" />
        </mxCell>
        <mxCell id="02Kw-IKdSbxGUuFnQFT1-0" value="" style="endArrow=none;html=1;entryX=0.5;entryY=0.5;entryDx=0;entryDy=0;entryPerimeter=0;" parent="-R-MOfN5qlVxSGHxa36g-1" source="02Kw-IKdSbxGUuFnQFT1-2" target="02Kw-IKdSbxGUuFnQFT1-1" edge="1">
          <mxGeometry width="50" height="50" relative="1" as="geometry">
            <mxPoint x="535" y="395" as="sourcePoint" />
            <mxPoint x="585" y="345" as="targetPoint" />
          </mxGeometry>
        </mxCell>
        <mxCell id="02Kw-IKdSbxGUuFnQFT1-1" value="System czasu &lt;br&gt;co 24h" style="shape=umlActor;verticalLabelPosition=bottom;labelBackgroundColor=#ffffff;verticalAlign=top;html=1;" parent="-R-MOfN5qlVxSGHxa36g-1" vertex="1">
          <mxGeometry x="740" y="245" width="30" height="60" as="geometry" />
        </mxCell>
        <mxCell id="02Kw-IKdSbxGUuFnQFT1-2" value="Wykonaj kopie zapasowÄ systemu" style="ellipse;whiteSpace=wrap;html=1;" parent="-R-MOfN5qlVxSGHxa36g-1" vertex="1">
          <mxGeometry x="525" y="245" width="140" height="70" as="geometry" />
        </mxCell>
        <mxCell id="02Kw-IKdSbxGUuFnQFT1-3" value="" style="endArrow=none;html=1;shadow=0;comic=0;jumpSize=0;jumpStyle=arc;startSize=0;rounded=0;exitX=0.5;exitY=0;exitDx=0;exitDy=0;exitPerimeter=0;entryX=0.758;entryY=0.175;entryDx=0;entryDy=0;entryPerimeter=0;" parent="-R-MOfN5qlVxSGHxa36g-1" source="02Kw-IKdSbxGUuFnQFT1-1" target="02Kw-IKdSbxGUuFnQFT1-1" edge="1">
          <mxGeometry width="50" height="50" relative="1" as="geometry">
            <mxPoint x="750.5555555555554" y="244.8888888888889" as="sourcePoint" />
            <mxPoint x="759.5" y="255" as="targetPoint" />
            <Array as="points">
              <mxPoint x="755" y="255" />
            </Array>
          </mxGeometry>
        </mxCell>
      </root>
    </mxGraphModel>
  </diagram>
</mxfile>
